<svg width="20" height="20" viewBox="0 0 20 20" fill="none" xmlns="http://www.w3.org/2000/svg">
<g>
<path d="M15.8338 7.56115C15.837 7.38813 15.7864 7.2184 15.6889 7.07543C15.5914 6.93247 15.4519 6.82334 15.2897 6.76315C15.1274 6.70296 14.9505 6.69468 14.7833 6.73946C14.6162 6.78425 14.4671 6.87988 14.3567 7.01312L9.99132 12.1123L5.62597 7.00997C5.55801 6.91675 5.47148 6.83864 5.37182 6.78055C5.27216 6.72246 5.16154 6.68565 5.04694 6.67247C4.93234 6.65928 4.81625 6.66998 4.706 6.70392C4.59575 6.73785 4.49373 6.79426 4.40638 6.8696C4.31903 6.94494 4.24824 7.03757 4.19849 7.14165C4.14873 7.24572 4.12109 7.35898 4.11731 7.47427C4.11353 7.58956 4.13369 7.70439 4.17651 7.8115C4.21934 7.91861 4.2839 8.01568 4.36613 8.09658L9.35195 13.9297C9.43031 14.0214 9.52762 14.095 9.63718 14.1456C9.74674 14.1961 9.86595 14.2222 9.9866 14.2222C10.1072 14.2222 10.2265 14.1961 10.336 14.1456C10.4456 14.095 10.5429 14.0214 10.6212 13.9297L15.6228 8.09658C15.7544 7.94877 15.8292 7.759 15.8338 7.56115Z" fill="black"/>
</g>
</svg>
