<svg width="14" height="14" viewBox="0 0 14 14" fill="none" xmlns="http://www.w3.org/2000/svg">
<path d="M2 11.0004H1.5C1.23478 11.0004 0.98043 10.8951 0.792893 10.7075C0.605357 10.52 0.5 10.2656 0.5 10.0004V8.00038C0.5 7.73516 0.605357 7.48081 0.792893 7.29327C0.98043 7.10573 1.23478 7.00038 1.5 7.00038H3L3.77 4.68038C3.83958 4.4734 3.975 4.29488 4.15557 4.17209C4.33614 4.0493 4.55193 3.989 4.77 4.00038H8.78C8.99807 3.989 9.21386 4.0493 9.39443 4.17209C9.575 4.29488 9.71042 4.4734 9.78 4.68038L10.5 7.00038H12.5C12.7652 7.00038 13.0196 7.10573 13.2071 7.29327C13.3946 7.48081 13.5 7.73516 13.5 8.00038V10.0004C13.5 10.2656 13.3946 10.52 13.2071 10.7075C13.0196 10.8951 12.7652 11.0004 12.5 11.0004H12" stroke="#323D48" stroke-linecap="round" stroke-linejoin="round"/>
<path d="M10.4991 12.5001C9.67009 12.5001 8.99805 11.8281 8.99805 10.9991C8.99805 10.17 9.67009 9.49805 10.4991 9.49805C11.3282 9.49805 12.0002 10.17 12.0002 10.9991C12.0002 11.8281 11.3282 12.5001 10.4991 12.5001Z" stroke="#323D48" stroke-linecap="round" stroke-linejoin="round"/>
<path d="M3.49911 12.5001C2.6701 12.5001 1.99805 11.8281 1.99805 10.9991C1.99805 10.1701 2.6701 9.49805 3.49911 9.49805C4.32812 9.49805 5.00017 10.1701 5.00017 10.9991C5.00017 11.8281 4.32812 12.5001 3.49911 12.5001Z" stroke="#323D48" stroke-linecap="round" stroke-linejoin="round"/>
<path d="M8.99789 11H5" stroke="#323D48" stroke-linecap="round" stroke-linejoin="round"/>
<path d="M7 4V2" stroke="#323D48" stroke-linecap="round" stroke-linejoin="round"/>
</svg>
