<svg width="18" height="18" viewBox="0 0 18 18" fill="none" xmlns="http://www.w3.org/2000/svg">
<path d="M8.99798 1C6.87761 1.00267 4.84484 1.84617 3.3455 3.3455C1.84617 4.84484 1.00267 6.87761 1 8.99798C1.0016 11.1191 1.84463 13.1529 3.34408 14.6531C4.84353 16.1533 6.87691 16.9973 8.99798 17C11.1198 16.9984 13.1542 16.1548 14.6545 14.6545C16.1548 13.1542 16.9984 11.1198 17 8.99798C16.9973 6.87656 16.153 4.84288 14.6524 3.34337C13.1517 1.84386 11.1194 1.00107 8.99798 1ZM8.99798 2.06626C9.9091 2.06494 10.8115 2.24335 11.6536 2.59128C12.4957 2.93922 13.2608 3.44984 13.9053 4.09391C14.5497 4.73797 15.0608 5.50284 15.4092 6.3447C15.7576 7.18656 15.9365 8.08889 15.9358 9C15.936 9.91106 15.7567 10.8132 15.4081 11.655C15.0596 12.4967 14.5485 13.2615 13.9042 13.9056C13.2599 14.5497 12.495 15.0606 11.6531 15.4089C10.8113 15.7573 9.90904 15.9363 8.99798 15.9358C8.08687 15.9365 7.18455 15.7576 6.34268 15.4092C5.50082 15.0608 4.73596 14.5497 4.09189 13.9053C3.44782 13.2608 2.9372 12.4957 2.58927 11.6536C2.24133 10.8115 2.06292 9.9091 2.06425 8.99798C2.06319 8.08713 2.24181 7.18502 2.58989 6.3433C2.93796 5.50158 3.44866 4.73679 4.09273 4.09273C4.73679 3.44866 5.50158 2.93796 6.3433 2.58989C7.18502 2.24181 8.08713 2.06319 8.99798 2.06425V2.06626ZM8.99194 4.73495C8.85098 4.7376 8.71678 4.79587 8.61861 4.89706C8.52044 4.99825 8.46625 5.13415 8.46788 5.27513V5.72462C7.60721 5.88586 6.86949 6.44016 6.86949 7.40161C6.86949 8.06677 7.17183 8.60695 7.57496 8.92139C7.97808 9.23583 8.43361 9.37289 8.8327 9.50592C9.23381 9.64097 9.57848 9.76795 9.774 9.92114C9.97153 10.0723 10.0642 10.2033 10.0642 10.6024C10.0642 11.4893 7.93575 11.4893 7.93575 10.6024C7.94023 10.5296 7.92976 10.4567 7.90499 10.3882C7.88022 10.3196 7.84168 10.2568 7.79174 10.2037C7.74179 10.1506 7.6815 10.1083 7.61458 10.0793C7.54766 10.0504 7.47553 10.0355 7.40262 10.0355C7.32971 10.0355 7.25758 10.0504 7.19066 10.0793C7.12374 10.1083 7.06345 10.1506 7.0135 10.2037C6.96356 10.2568 6.92502 10.3196 6.90025 10.3882C6.87548 10.4567 6.86501 10.5296 6.86949 10.6024C6.86949 11.5619 7.60721 12.1182 8.46788 12.2794V12.7269C8.4634 12.7997 8.47387 12.8726 8.49864 12.9411C8.5234 13.0097 8.56195 13.0725 8.61189 13.1256C8.66184 13.1787 8.72213 13.221 8.78905 13.25C8.85597 13.2789 8.9281 13.2938 9.00101 13.2938C9.07391 13.2938 9.14605 13.2789 9.21297 13.25C9.27989 13.221 9.34018 13.1787 9.39012 13.1256C9.44007 13.0725 9.47861 13.0097 9.50338 12.9411C9.52815 12.8726 9.53862 12.7997 9.53414 12.7269V12.2774C10.3948 12.1162 11.1325 11.5598 11.1325 10.6004C11.1325 9.93323 10.8302 9.39305 10.4271 9.08062C10.0239 8.76619 9.5684 8.62509 9.16931 8.49206C8.7682 8.35903 8.42353 8.23205 8.226 8.08088C8.03049 7.92769 7.93575 7.79869 7.93575 7.3996C7.93575 6.51071 10.0642 6.51071 10.0642 7.3996C10.0642 7.54126 10.1205 7.67712 10.2207 7.77729C10.3209 7.87746 10.4567 7.93374 10.5984 7.93374C10.74 7.93374 10.8759 7.87746 10.9761 7.77729C11.0763 7.67712 11.1325 7.54126 11.1325 7.3996C11.1325 6.44016 10.3948 5.88587 9.53414 5.7226V5.27312C9.53496 5.20161 9.52142 5.13066 9.49431 5.06449C9.4672 4.99831 9.42708 4.93826 9.37632 4.88788C9.32557 4.8375 9.26521 4.79783 9.19884 4.77121C9.13246 4.74459 9.06142 4.73158 8.98992 4.73293L8.99194 4.73495Z" fill="white"/>
</svg>
