<svg width="18" height="18" viewBox="0 0 18 18" fill="none" xmlns="http://www.w3.org/2000/svg">
<path d="M10.7895 11.6997C10.4128 11.9569 9.9977 12.0875 9.55625 12.0875C8.62374 12.0875 7.81576 11.4719 7.37735 10.5688H9.05C9.32945 10.5688 9.55625 10.342 9.55625 10.0625C9.55625 9.78305 9.32945 9.55625 9.05 9.55625H7.06752C7.04424 9.39121 7.025 9.22314 7.025 9.05C7.025 8.87686 7.04424 8.70879 7.06752 8.54375H9.55625C9.8357 8.54375 10.0625 8.31695 10.0625 8.0375C10.0625 7.75805 9.8357 7.53125 9.55625 7.53125H7.37735C7.81576 6.6281 8.62374 6.0125 9.55625 6.0125C9.9977 6.0125 10.4128 6.14311 10.7895 6.40029C11.0203 6.55722 11.3362 6.49951 11.4932 6.26765C11.6511 6.0368 11.5914 5.72191 11.3605 5.56396C10.8198 5.19541 10.1961 5 9.55625 5C8.07294 5 6.80326 6.04996 6.27575 7.53125H5.50625C5.2268 7.53125 5 7.75805 5 8.0375C5 8.31695 5.2268 8.54375 5.50625 8.54375H6.05705C6.03883 8.71183 6.0125 8.87686 6.0125 9.05C6.0125 9.22314 6.03883 9.38818 6.05705 9.55625H5.50625C5.2268 9.55625 5 9.78305 5 10.0625C5 10.342 5.2268 10.5688 5.50625 10.5688H6.27575C6.80326 12.05 8.07294 13.1 9.55625 13.1C10.1961 13.1 10.8198 12.9046 11.3605 12.536C11.5914 12.3781 11.6511 12.0632 11.4932 11.8324C11.3362 11.6015 11.0203 11.5428 10.7895 11.6997Z" fill="white"/>
<path d="M8.99798 1C6.87761 1.00267 4.84484 1.84617 3.3455 3.3455C1.84617 4.84484 1.00267 6.87761 1 8.99798C1.0016 11.1191 1.84463 13.1529 3.34408 14.6531C4.84353 16.1533 6.87691 16.9973 8.99798 17C11.1198 16.9984 13.1542 16.1548 14.6545 14.6545C16.1548 13.1542 16.9984 11.1198 17 8.99798C16.9973 6.87656 16.153 4.84288 14.6524 3.34337C13.1517 1.84386 11.1194 1.00107 8.99798 1ZM8.99798 2.06626C9.9091 2.06494 10.8115 2.24335 11.6536 2.59128C12.4957 2.93922 13.2608 3.44984 13.9053 4.09391C14.5497 4.73797 15.0608 5.50284 15.4092 6.3447C15.7576 7.18656 15.9365 8.08889 15.9358 9C15.936 9.91106 15.7567 10.8132 15.4081 11.655C15.0596 12.4967 14.5485 13.2615 13.9042 13.9056C13.2599 14.5497 12.495 15.0606 11.6531 15.4089C10.8113 15.7573 9.90904 15.9363 8.99798 15.9358C8.08687 15.9365 7.18455 15.7576 6.34268 15.4092C5.50082 15.0608 4.73596 14.5497 4.09189 13.9053C3.44782 13.2608 2.9372 12.4957 2.58927 11.6536C2.24133 10.8115 2.06292 9.9091 2.06425 8.99798C2.06319 8.08713 2.24181 7.18502 2.58989 6.3433C2.93796 5.50159 3.44866 4.73679 4.09273 4.09273C4.73679 3.44866 5.50159 2.93796 6.3433 2.58989C7.18502 2.24181 8.08713 2.06319 8.99798 2.06425V2.06626Z" fill="white"/>
</svg>
