<svg width="14" height="14" viewBox="0 0 14 14" fill="none" xmlns="http://www.w3.org/2000/svg">
<g clip-path="url(#clip0_3009_16056)">
<path d="M3.48145 8.67871H10.5185V13.3887H3.48145V8.67871Z" stroke="#323D48" stroke-linecap="round" stroke-linejoin="round"/>
<path d="M5.06836 5.97754H8.87861" stroke="#323D48" stroke-linecap="round" stroke-linejoin="round"/>
<path d="M5.94238 11.6277C5.94238 11.0437 6.41582 10.5703 6.99984 10.5703C7.58386 10.5703 8.0573 11.0437 8.0573 11.6277V13.3889H5.94238V11.6277Z" stroke="#323D48" stroke-linecap="round" stroke-linejoin="round"/>
<path d="M5.06643 8.67929L5.06641 5.96875L6.97579 3.03125L8.88517 5.96875L8.88518 8.67929" stroke="#323D48" stroke-linecap="round" stroke-linejoin="round"/>
<path d="M0.589844 6.71012V13.3888H3.48108V6.71012L2.03546 4.51172L0.589844 6.71012Z" stroke="#323D48" stroke-linecap="round" stroke-linejoin="round"/>
<path d="M10.5186 6.71012V13.3888H13.4098V6.71012L11.9642 4.51172L10.5186 6.71012Z" stroke="#323D48" stroke-linecap="round" stroke-linejoin="round"/>
<path d="M6.97668 3.03098L6.97656 0.548829L8.22695 0.548828" stroke="#323D48" stroke-linecap="round" stroke-linejoin="round"/>
</g>
<defs>
<clipPath id="clip0_3009_16056">
<rect width="14" height="14" fill="white"/>
</clipPath>
</defs>
</svg>
