<svg width="20" height="20" viewBox="0 0 20 20" fill="none" xmlns="http://www.w3.org/2000/svg">
<path d="M19.8496 10.1776L19.8946 10.1326L19.9268 10.1005L19.9589 10.0683L19.9525 9.99757C19.941 9.97943 19.9256 9.96406 19.9075 9.95256L16.544 6.5891C16.4673 6.51235 16.3632 6.46923 16.2546 6.46923C16.1461 6.46923 16.042 6.51235 15.9652 6.5891C15.8885 6.66585 15.8453 6.76995 15.8453 6.8785C15.8453 6.98704 15.8885 7.09114 15.9652 7.1679L18.4348 9.63743L0.582075 9.5474C0.472915 9.5474 0.368225 9.59076 0.291037 9.66795C0.213849 9.74514 0.170486 9.84982 0.170486 9.95898C0.170486 10.0681 0.213849 10.1728 0.291037 10.25C0.368225 10.3272 0.472915 10.3706 0.582075 10.3706L18.5505 10.332L16.0424 12.8401C15.9684 12.9174 15.9277 13.0206 15.9289 13.1276C15.9301 13.2346 15.9732 13.3368 16.0488 13.4125C16.0844 13.4537 16.1291 13.4862 16.1793 13.5074C16.2294 13.5285 16.2838 13.5379 16.3382 13.5347C16.4441 13.5351 16.5459 13.4934 16.6212 13.4189L19.8367 10.2034L19.8496 10.1776Z" fill="#E21A55"/>
</svg>
