<svg width="20" height="20" viewBox="0 0 20 20" fill="none" xmlns="http://www.w3.org/2000/svg">
<path d="M1.79462 19.999C1.51067 19.9976 1.23108 19.9292 0.978728 19.7992C0.726267 19.6693 0.508086 19.4814 0.342049 19.2511C0.176013 19.0209 0.0668107 18.7545 0.0232638 18.474C-0.0203948 18.1934 0.00305355 17.9065 0.0914873 17.6367L0.952265 15.0778C1.05354 14.792 1.0436 14.4786 0.924573 14.1997C-0.0615975 12.0686 -0.266268 9.65849 0.346181 7.3917C0.958629 5.1248 2.34934 3.14576 4.27445 1.80128C6.19967 0.456909 8.53658 -0.167153 10.8757 0.0384113C13.2147 0.244087 15.4069 1.26632 17.0681 2.92602C18.7291 4.58572 19.7532 6.77702 19.9608 9.11594C20.1684 11.4549 19.5462 13.7923 18.2034 15.7187C16.8606 17.6449 14.8827 19.0373 12.6164 19.6516C10.35 20.266 7.93976 20.0632 5.80786 19.0789C5.52358 18.9564 5.20334 18.9469 4.91236 19.0522L2.36475 19.908C2.18074 19.9686 1.98835 19.9993 1.79462 19.999ZM9.98289 1.57528C8.56628 1.57249 7.17188 1.92667 5.92823 2.60511C4.68468 3.28366 3.63219 4.26459 2.86799 5.45733C2.10369 6.65018 1.65237 8.01632 1.55567 9.42959C1.45897 10.8429 1.71992 12.2578 2.31461 13.5435C2.5999 14.177 2.63429 14.8951 2.41075 15.5527L1.54796 18.1239C1.53233 18.169 1.5301 18.2178 1.54182 18.2641C1.55344 18.3105 1.57834 18.3525 1.6134 18.385C1.64634 18.42 1.68865 18.4448 1.73533 18.4564C1.782 18.468 1.83102 18.466 1.87646 18.4504L4.43535 17.5916C5.09905 17.3634 5.82494 17.3979 6.46397 17.6879C7.61059 18.2139 8.86061 18.4762 10.1219 18.4554C11.3833 18.4346 12.624 18.1314 13.7527 17.5681C14.8814 17.0046 15.8694 16.1953 16.6442 15.1997C17.4189 14.2041 17.9606 13.0474 18.2295 11.815C18.4982 10.5824 18.4874 9.3052 18.1975 8.0774C17.9077 6.8496 17.3463 5.70242 16.5547 4.72015C15.7631 3.738 14.7613 2.94567 13.6232 2.40167C12.4849 1.85756 11.2393 1.57551 9.97776 1.5764L9.98289 1.57528ZM14.8396 7.97344C14.8396 7.76989 14.7588 7.5746 14.6147 7.43067C14.4708 7.28674 14.2755 7.20579 14.072 7.20579H5.88368C5.68001 7.20579 5.48483 7.28674 5.34079 7.43067C5.19686 7.5746 5.11602 7.76989 5.11602 7.97344C5.11602 8.17711 5.19686 8.37229 5.34079 8.51633C5.48483 8.66026 5.68001 8.7411 5.88368 8.7411H14.072C14.2755 8.7411 14.4708 8.66026 14.6147 8.51633C14.7588 8.37229 14.8396 8.17711 14.8396 7.97344ZM11.769 12.0676C11.769 11.8641 11.6881 11.6688 11.5441 11.5249C11.4002 11.3808 11.2049 11.3 11.0013 11.3H5.88368C5.68001 11.3 5.48483 11.3808 5.34079 11.5249C5.19686 11.6688 5.11602 11.8641 5.11602 12.0676C5.11602 12.2712 5.19686 12.4665 5.34079 12.6104C5.48483 12.7545 5.68001 12.8353 5.88368 12.8353H11.0013C11.2049 12.8353 11.4002 12.7545 11.5441 12.6104C11.6881 12.4665 11.769 12.2712 11.769 12.0676Z" fill="black"/>
</svg>
