<svg width="14" height="14" viewBox="0 0 14 14" fill="none" xmlns="http://www.w3.org/2000/svg">
<g clip-path="url(#clip0_2621_575)">
<mask id="mask0_2621_575" style="mask-type:luminance" maskUnits="userSpaceOnUse" x="0" y="0" width="14" height="14">
<path d="M14.0009 0.0595703H0.078125V13.9823H14.0009V0.0595703Z" fill="white"/>
</mask>
<g mask="url(#mask0_2621_575)">
<path d="M11.9618 2.09839C10.65 0.824369 8.88954 0.117682 7.0609 0.131045C5.2323 0.14441 3.4824 0.876753 2.18933 2.1698C0.896284 3.46286 0.163941 5.21277 0.150577 7.04137C0.137214 8.87001 0.8439 10.6304 2.11791 11.9422C3.00744 12.8307 4.1207 13.4621 5.33978 13.7695C6.55886 14.077 7.83837 14.049 9.04286 13.6885C9.21481 13.6361 9.35902 13.5178 9.44384 13.3592C9.52871 13.2007 9.54733 13.0152 9.49571 12.8429C9.44401 12.6708 9.32625 12.5261 9.16816 12.4405C9.01009 12.3549 8.82451 12.3354 8.65209 12.3863C8.12906 12.5431 7.5859 12.6225 7.03984 12.6221C3.95099 12.6221 1.43809 10.1091 1.43809 7.02031C1.43809 3.93146 3.95099 1.41856 7.03984 1.41856C10.1287 1.41856 12.6416 3.93146 12.6416 7.02031C12.6436 8.1122 12.3249 9.18066 11.7252 10.0931C11.6288 10.2438 11.5956 10.4263 11.6329 10.6012C11.6702 10.7762 11.775 10.9294 11.9244 11.0276C12.0739 11.1258 12.2561 11.1612 12.4314 11.126C12.6069 11.0909 12.7612 10.9881 12.8613 10.8399C13.7388 9.50135 14.1285 7.90139 13.9646 6.30926C13.8009 4.71717 13.0935 3.23011 11.9618 2.09839Z" fill="#E21A55"/>
<path d="M6.35938 3.70326V8.02695C6.35938 8.20725 6.43103 8.38012 6.55854 8.50764C6.68599 8.63514 6.85892 8.70673 7.03922 8.70673C7.21952 8.70673 7.39245 8.63514 7.5199 8.50764C7.64741 8.38012 7.71906 8.20725 7.71906 8.02695V3.70326C7.71906 3.52296 7.64741 3.35004 7.5199 3.22255C7.39245 3.09506 7.21952 3.02344 7.03922 3.02344C6.85892 3.02344 6.68599 3.09506 6.55854 3.22255C6.43103 3.35004 6.35938 3.52296 6.35938 3.70326ZM7.03922 11.0181C6.90475 11.0181 6.77335 10.9783 6.66151 10.9036C6.54972 10.8289 6.46258 10.7227 6.41113 10.5985C6.35967 10.4743 6.34621 10.3376 6.37243 10.2057C6.39871 10.0738 6.46345 9.9527 6.55854 9.85763C6.65356 9.76254 6.77475 9.6978 6.9066 9.67158C7.03846 9.64536 7.17514 9.65882 7.2994 9.71027C7.4236 9.76173 7.52976 9.84886 7.60449 9.96066C7.67915 10.0724 7.71906 10.2039 7.71906 10.3384C7.71906 10.5187 7.64741 10.6915 7.5199 10.8191C7.39245 10.9466 7.21952 11.0181 7.03922 11.0181Z" fill="#E21A55"/>
</g>
</g>
<defs>
<clipPath id="clip0_2621_575">
<rect width="14" height="14" fill="white"/>
</clipPath>
</defs>
</svg>
