<svg width="45" height="45" viewBox="0 0 45 45" fill="none" xmlns="http://www.w3.org/2000/svg">
<circle cx="22.5" cy="22.5" r="22.5" fill="#E21A55"/>
<path d="M15.6717 30.9362C15.4174 30.935 15.167 30.8737 14.941 30.7573C14.7149 30.6409 14.5195 30.4727 14.3708 30.2664C14.2221 30.0602 14.1243 29.8217 14.0853 29.5704C14.0462 29.3191 14.0672 29.0622 14.1464 28.8206L14.9173 26.5289C15.008 26.2729 14.9991 25.9922 14.8925 25.7424C14.0093 23.8339 13.826 21.6754 14.3745 19.6453C14.923 17.6151 16.1685 15.8427 17.8926 14.6386C19.6168 13.4346 21.7097 12.8757 23.8046 13.0598C25.8994 13.244 27.8627 14.1595 29.3504 15.6459C30.838 17.1323 31.7551 19.0948 31.9411 21.1895C32.127 23.2842 31.5698 25.3776 30.3672 27.1028C29.1646 28.8279 27.3932 30.0749 25.3635 30.6251C23.3338 31.1753 21.1752 30.9937 19.2659 30.1122C19.0113 30.0025 18.7245 29.994 18.4639 30.0883L16.1823 30.8547C16.0175 30.909 15.8452 30.9365 15.6717 30.9362ZM23.005 14.4362C21.7363 14.4337 20.4875 14.7509 19.3737 15.3585C18.26 15.9662 17.3174 16.8447 16.633 17.9129C15.9485 18.9812 15.5443 20.2047 15.4577 21.4704C15.3711 22.7361 15.6048 24.0033 16.1374 25.1548C16.3929 25.7221 16.4237 26.3652 16.2235 26.9542L15.4508 29.2569C15.4368 29.2973 15.4348 29.341 15.4453 29.3825C15.4557 29.424 15.478 29.4616 15.5094 29.4907C15.5389 29.5221 15.5768 29.5443 15.6186 29.5547C15.6604 29.5651 15.7043 29.5633 15.745 29.5493L18.0367 28.7802C18.6311 28.5758 19.2812 28.6067 19.8535 28.8664C20.8804 29.3375 21.9999 29.5724 23.1295 29.5538C24.2592 29.5352 25.3703 29.2636 26.3812 28.7591C27.392 28.2545 28.2769 27.5297 28.9708 26.638C29.6646 25.7464 30.1497 24.7105 30.3905 23.6067C30.6312 22.5028 30.6215 21.359 30.3619 20.2594C30.1023 19.1598 29.5996 18.1324 28.8906 17.2527C28.1817 16.3731 27.2845 15.6635 26.2652 15.1763C25.2458 14.689 24.1302 14.4364 23.0004 14.4372L23.005 14.4362ZM27.3546 20.1663C27.3546 19.984 27.2822 19.8091 27.1532 19.6802C27.0243 19.5513 26.8494 19.4788 26.6671 19.4788H19.3338C19.1514 19.4788 18.9766 19.5513 18.8476 19.6802C18.7187 19.8091 18.6463 19.984 18.6463 20.1663C18.6463 20.3487 18.7187 20.5235 18.8476 20.6525C18.9766 20.7814 19.1514 20.8538 19.3338 20.8538H26.6671C26.8494 20.8538 27.0243 20.7814 27.1532 20.6525C27.2822 20.5235 27.3546 20.3487 27.3546 20.1663ZM24.6046 23.833C24.6046 23.6507 24.5322 23.4758 24.4032 23.3469C24.2743 23.2179 24.0994 23.1455 23.9171 23.1455H19.3338C19.1514 23.1455 18.9766 23.2179 18.8476 23.3469C18.7187 23.4758 18.6463 23.6507 18.6463 23.833C18.6463 24.0153 18.7187 24.1902 18.8476 24.3191C18.9766 24.4481 19.1514 24.5205 19.3338 24.5205H23.9171C24.0994 24.5205 24.2743 24.4481 24.4032 24.3191C24.5322 24.1902 24.6046 24.0153 24.6046 23.833Z" fill="white"/>
</svg>
