<svg width="14" height="14" viewBox="0 0 14 14" fill="none" xmlns="http://www.w3.org/2000/svg">
<path d="M0.809789 3.78049L2.17979 3.34049C2.27189 3.31177 2.37068 3.31273 2.46221 3.34324C2.55373 3.37375 2.63334 3.43226 2.68979 3.51049L3.62979 5.00049L8.78979 2.43049C9.19665 2.19189 9.65071 2.045 10.1202 2.00008C10.5898 1.95516 11.0634 2.0133 11.5082 2.17043C11.9529 2.32756 12.358 2.57989 12.695 2.90981C13.0321 3.23972 13.2931 3.63925 13.4598 4.08049C13.5286 4.30328 13.5061 4.54424 13.3974 4.75048C13.2886 4.95673 13.1025 5.11138 12.8798 5.18049L9.48979 6.28049L9.14979 6.39049L8.50979 8.58049C8.49034 8.65615 8.45152 8.72544 8.39717 8.78155C8.34281 8.83766 8.27479 8.87865 8.19979 8.90049L6.65979 9.40049C6.57897 9.43541 6.49011 9.44744 6.40292 9.43525C6.31573 9.42306 6.23357 9.38712 6.16543 9.33137C6.0973 9.27562 6.0458 9.20221 6.01659 9.11916C5.98737 9.03611 5.98156 8.94662 5.99979 8.86049L6.31979 7.30049L6.09979 7.37049L2.78979 8.44049C2.68283 8.48016 2.56905 8.49816 2.45507 8.49343C2.34109 8.4887 2.22919 8.46134 2.12589 8.41295C2.02259 8.36455 1.92994 8.29609 1.85336 8.21154C1.77677 8.127 1.71777 8.02806 1.67979 7.92049L0.519789 4.32049C0.488417 4.21045 0.501151 4.0925 0.555292 3.99169C0.609433 3.89088 0.700721 3.81512 0.809789 3.78049Z" stroke="#323D48" stroke-linecap="round" stroke-linejoin="round"/>
<path d="M13.5 13.5H0.5" stroke="#323D48" stroke-linecap="round" stroke-linejoin="round"/>
</svg>
