<svg width="10" height="10" viewBox="0 0 10 10" fill="none" xmlns="http://www.w3.org/2000/svg">
<path d="M7.91655 3.78039C7.91816 3.69388 7.89283 3.60902 7.84409 3.53753C7.79534 3.46605 7.72558 3.41149 7.64446 3.38139C7.56334 3.3513 7.47488 3.34716 7.3913 3.36955C7.30773 3.39194 7.23318 3.43976 7.17797 3.50638L4.99529 6.05598L2.81262 3.5048C2.77864 3.45819 2.73537 3.41913 2.68554 3.39009C2.63571 3.36104 2.5804 3.34264 2.5231 3.33605C2.4658 3.32945 2.40776 3.33481 2.35264 3.35177C2.29751 3.36874 2.2465 3.39695 2.20282 3.43462C2.15915 3.47229 2.12375 3.5186 2.09888 3.57064C2.074 3.62268 2.06018 3.67931 2.05829 3.73695C2.0564 3.7946 2.06648 3.85201 2.08789 3.90557C2.1093 3.95912 2.14158 4.00766 2.1827 4.04811L4.67561 6.96464C4.71479 7.01051 4.76344 7.04734 4.81822 7.07259C4.87301 7.09785 4.93261 7.11092 4.99293 7.11092C5.05325 7.11092 5.11286 7.09785 5.16764 7.07259C5.22242 7.04734 5.27108 7.01051 5.31025 6.96464L7.81104 4.04811C7.87684 3.9742 7.91424 3.87932 7.91655 3.78039Z" fill="#1F2832"/>
</svg>
