<svg width="20" height="20" viewBox="0 0 20 20" fill="none" xmlns="http://www.w3.org/2000/svg">
<path d="M10.1781 0.150408L10.1331 0.10539L10.101 0.0732349L10.0688 0.0410799L9.99806 0.0475099C9.97992 0.0590091 9.96454 0.0743826 9.95304 0.0925273L6.58959 3.45598C6.51284 3.53274 6.46971 3.63684 6.46971 3.74538C6.46971 3.85393 6.51284 3.95803 6.58959 4.03478C6.66634 4.11153 6.77044 4.15465 6.87899 4.15465C6.98753 4.15465 7.09163 4.11153 7.16839 4.03478L9.63792 1.56524L9.54788 19.4179C9.54788 19.5271 9.59125 19.6318 9.66844 19.709C9.74562 19.7862 9.85031 19.8295 9.95947 19.8295C10.0686 19.8295 10.1733 19.7862 10.2505 19.709C10.3277 19.6318 10.3711 19.5271 10.3711 19.4179L10.3325 1.44949L12.8406 3.95761C12.9179 4.03156 13.0211 4.0723 13.1281 4.0711C13.2351 4.06989 13.3373 4.02685 13.413 3.95118C13.4542 3.91556 13.4867 3.87093 13.5078 3.82074C13.529 3.77055 13.5384 3.71616 13.5352 3.66178C13.5355 3.55585 13.4939 3.45409 13.4194 3.37881L10.2039 0.16327L10.1781 0.150408Z" fill="black"/>
</svg>
