<svg width="20" height="20" viewBox="0 0 20 20" fill="none" xmlns="http://www.w3.org/2000/svg">
<path d="M17.9992 10.0189C17.9677 11.9688 16.864 13.1449 15.4766 14.0735C15.0982 14.3211 14.7198 14.2592 14.436 13.9187C14.1206 13.5473 14.0576 13.114 14.3729 12.7426C14.6882 12.4021 15.0666 12.1236 15.4135 11.814C16.1703 11.1022 16.391 10.0498 15.9495 9.15224C15.5396 8.37847 14.6882 7.94515 13.8053 8.09991C13.4269 8.16181 13.1431 8.34752 12.8593 8.56417C11.4403 9.70936 10.0213 10.8236 8.63387 11.9688C6.89955 13.2997 4.9445 13.3925 3.49398 12.1545C1.88579 10.8236 1.53893 8.74988 2.64258 6.95472C2.95791 6.42855 3.43091 5.99523 3.93544 5.65477C4.3769 5.34526 4.8499 5.37621 5.16523 5.80952C5.48056 6.24284 5.44903 6.67616 5.07063 7.04757C4.78683 7.32613 4.40844 7.54279 4.18771 7.9142C3.65164 8.78083 3.77777 9.98792 4.53457 10.6688C5.25983 11.3498 6.33195 11.3498 7.15182 10.6998C8.63387 9.52366 10.0844 8.34752 11.5664 7.17137C12.8278 6.14999 14.2468 5.90238 15.7288 6.61425C17.2424 7.29518 17.9361 8.56417 17.9992 10.0189Z" fill="#E21A55"/>
<path d="M8.72622 6.83633C8.25322 6.83633 8.03249 6.68157 7.78022 6.46491C6.77117 5.47448 5.76211 4.48404 4.75305 3.46266C4.09085 2.78173 4.24852 2.06986 5.16298 1.7913C6.64503 1.32703 8.12709 0.893714 9.64068 0.460398C10.4921 0.21279 11.0912 0.831812 10.8705 1.66749C10.429 3.15314 9.95601 4.6388 9.51454 6.1554C9.38841 6.55777 9.07308 6.80538 8.72622 6.83633Z" fill="#E21A55"/>
<path d="M13.772 16.0903C13.772 17.6378 12.4791 18.8759 10.9024 18.8449C9.35732 18.814 8.096 17.545 8.12753 16.0284C8.15906 14.5427 9.42039 13.3047 10.934 13.3047C12.5106 13.3047 13.772 14.5737 13.772 16.0903Z" fill="#E21A55"/>
</svg>
