<svg width="22" height="22" viewBox="0 0 22 22" fill="none" xmlns="http://www.w3.org/2000/svg">
<path d="M11.1935 0.165317L11.144 0.115818L11.1087 0.0804633L11.0733 0.0451085L10.9956 0.0521784C10.9756 0.0648217 10.9587 0.081725 10.9461 0.101676L7.24789 3.79984C7.1635 3.88423 7.11608 3.99869 7.11608 4.11804C7.11608 4.23739 7.1635 4.35185 7.24789 4.43624C7.33228 4.52063 7.44674 4.56804 7.56608 4.56804C7.68543 4.56804 7.79989 4.52063 7.88428 4.43624L10.5996 1.72095L10.5006 21.3502C10.5006 21.4703 10.5483 21.5854 10.6331 21.6702C10.718 21.7551 10.8331 21.8028 10.9531 21.8028C11.0731 21.8028 11.1883 21.7551 11.2731 21.6702C11.358 21.5854 11.4057 21.4703 11.4057 21.3502L11.3632 1.59367L14.121 4.35139C14.206 4.4327 14.3194 4.47749 14.4371 4.47617C14.5547 4.47485 14.6671 4.42752 14.7503 4.34432C14.7956 4.30516 14.8313 4.25608 14.8546 4.2009C14.8779 4.14572 14.8882 4.08591 14.8846 4.02612C14.8851 3.90965 14.8393 3.79777 14.7574 3.71499L11.2218 0.179458L11.1935 0.165317Z" fill="black"/>
</svg>
