<svg width="20" height="20" viewBox="0 0 20 20" fill="none" xmlns="http://www.w3.org/2000/svg">
<path d="M17.7331 8.69752C18.0175 8.32986 18.2433 8.03486 18.41 7.81229C19.6109 6.21564 20.1315 5.19568 19.9719 4.751L19.9093 4.64686C19.8678 4.5843 19.7599 4.52686 19.5865 4.47486C19.4129 4.4229 19.1908 4.4146 18.9202 4.4489L15.9213 4.47005C15.8519 4.46314 15.7819 4.46476 15.7129 4.47486C15.6435 4.48542 15.5985 4.49601 15.5775 4.50612C15.5566 4.51671 15.5393 4.5252 15.5255 4.53212L15.4839 4.56338C15.4492 4.58408 15.4111 4.62063 15.3695 4.67286C15.3278 4.72504 15.2929 4.78553 15.2653 4.85518C14.939 5.6951 14.5677 6.47619 14.1511 7.19817C13.8942 7.62861 13.6581 8.00202 13.4431 8.31746C13.2279 8.63362 13.0474 8.8661 12.9016 9.01507C12.7559 9.1643 12.6238 9.28429 12.5059 9.37424C12.3878 9.46482 12.2976 9.50276 12.2353 9.48898C12.1761 9.47606 12.117 9.46211 12.0583 9.44712C11.961 9.38483 11.8828 9.29996 11.824 9.19213C11.7649 9.0848 11.7251 8.94932 11.7042 8.78608C11.6835 8.62306 11.6711 8.48236 11.6678 8.36416C11.6642 8.24623 11.666 8.07976 11.6731 7.86429C11.68 7.64905 11.6835 7.50354 11.6835 7.42698C11.6835 7.16346 11.6888 6.87699 11.6992 6.56797C11.7095 6.25918 11.7183 6.0143 11.7251 5.83377C11.732 5.65351 11.7355 5.46243 11.7355 5.26102C11.7355 5.06005 11.7233 4.90185 11.6988 4.78714C11.6743 4.67254 11.6377 4.56086 11.5897 4.45397C11.5409 4.3466 11.4698 4.26312 11.376 4.20428C11.2823 4.14518 11.1661 4.09852 11.0273 4.06354C10.6591 3.98006 10.1905 3.93547 9.62146 3.92814C8.33017 3.9148 7.50059 3.99802 7.1327 4.17828C6.98693 4.25485 6.85494 4.35877 6.73701 4.49075C6.61194 4.64366 6.59469 4.72711 6.68505 4.74044C7.10167 4.803 7.39648 4.95245 7.57005 5.18836L7.63261 5.3132C7.68111 5.40378 7.72965 5.56338 7.77838 5.79237C7.82692 6.0214 7.85818 6.27477 7.87219 6.55253C7.90691 7.05928 7.90691 7.49295 7.87219 7.85419C7.83748 8.21539 7.8046 8.49637 7.77335 8.69734C7.74205 8.89875 7.69516 9.06177 7.63283 9.18661C7.57028 9.31191 7.52869 9.38825 7.50776 9.41605C7.48684 9.44363 7.46959 9.4611 7.4558 9.46805C7.36607 9.50251 7.27075 9.52013 7.17463 9.52001C7.07736 9.52001 6.95939 9.47124 6.82053 9.37397C6.68163 9.27719 6.53747 9.14337 6.38847 8.97321C6.23902 8.80332 6.07093 8.56535 5.8833 8.25976C5.6959 7.95465 5.50136 7.59341 5.30018 7.17702L5.1337 6.87488C5.02956 6.68083 4.8872 6.39778 4.70672 6.02643C4.52623 5.65509 4.36641 5.29596 4.22777 4.94855C4.17213 4.803 4.08888 4.69194 3.97786 4.61537L3.9259 4.58411C3.89118 4.5565 3.83554 4.52686 3.7592 4.49579C3.6821 4.46436 3.60174 4.44162 3.51961 4.42797L0.66642 4.44867C0.374875 4.44867 0.177143 4.51491 0.0729989 4.64686L0.0313711 4.70919C0.0103318 4.74413 0 4.79977 0 4.87588C0 4.95245 0.0209266 5.04604 0.0625544 5.15687C0.47917 6.13591 0.932154 7.08001 1.42143 7.98914C1.91097 8.89875 2.33611 9.63129 2.69709 10.1866C3.05806 10.7423 3.42595 11.2661 3.80098 11.759C4.176 12.252 4.42408 12.5677 4.54547 12.7063C4.66686 12.8455 4.76228 12.9496 4.83175 13.0188L5.09204 13.269C5.25851 13.4355 5.50339 13.635 5.82623 13.8677C6.14904 14.1004 6.50637 14.3294 6.89886 14.5548C7.29091 14.7805 7.74754 14.9642 8.26807 15.1068C8.78864 15.2493 9.29539 15.3066 9.78835 15.2785H10.9859C11.2289 15.2578 11.4128 15.1818 11.5377 15.0495L11.5793 14.9976C11.6069 14.9562 11.6331 14.8918 11.6574 14.8051C11.6816 14.7184 11.6941 14.6228 11.6941 14.5188C11.6869 14.2204 11.7097 13.9509 11.7616 13.7118C11.8136 13.4722 11.8727 13.2919 11.9387 13.1701C12.0047 13.0489 12.0792 12.9464 12.1626 12.8629C12.2459 12.7794 12.3047 12.7295 12.3397 12.712C12.3744 12.695 12.4023 12.6829 12.423 12.6755C12.5894 12.62 12.7855 12.6739 13.0113 12.8369C13.2369 13.0004 13.4487 13.2013 13.6466 13.4409C13.8443 13.6805 14.0821 13.9493 14.3598 14.248C14.6374 14.5464 14.8804 14.7685 15.0887 14.9143L15.297 15.0396C15.4359 15.1226 15.6162 15.1989 15.8385 15.2686C16.0606 15.3378 16.2552 15.3553 16.4216 15.3206L19.0874 15.2787C19.3511 15.2787 19.556 15.2355 19.7018 15.1486C19.8475 15.0624 19.9343 14.9663 19.9621 14.8623C19.9897 14.7582 19.9915 14.6407 19.9674 14.5085C19.943 14.3767 19.9187 14.2847 19.8945 14.2328C19.8702 14.1808 19.8476 14.1371 19.8267 14.1026C19.4795 13.4779 18.8166 12.7106 17.8378 11.8013L17.8168 11.7806L17.8065 11.77L17.7962 11.7599H17.7857C17.3413 11.3363 17.0603 11.0517 16.9423 10.9057C16.7271 10.6284 16.6784 10.3472 16.7966 10.0626C16.8793 9.84672 17.1916 9.39193 17.7331 8.69752Z" fill="#1F2832"/>
</svg>
