<svg width="20" height="20" viewBox="0 0 20 20" fill="none" xmlns="http://www.w3.org/2000/svg">
<g clip-path="url(#clip0_3009_5394)">
<path d="M14.5893 11.9238L14.5818 11.9863C12.7493 11.0729 12.5576 10.9513 12.3209 11.3063C12.1568 11.5521 11.6784 12.1096 11.5343 12.2746C11.3884 12.4371 11.2434 12.4496 10.9959 12.3371C10.7459 12.2121 9.94345 11.9496 8.99345 11.0996C8.25345 10.4371 7.75678 9.62461 7.61011 9.37461C7.36595 8.95295 7.87678 8.89295 8.34178 8.01295C8.42511 7.83795 8.38261 7.70045 8.32095 7.57628C8.25845 7.45128 7.76095 6.22628 7.55261 5.73795C7.35261 5.25128 7.14678 5.31295 6.99261 5.31295C6.51261 5.27128 6.16178 5.27795 5.85261 5.59961C4.50761 7.07795 4.84678 8.60295 5.99761 10.2246C8.25928 13.1846 9.46428 13.7296 11.6676 14.4863C12.2626 14.6754 12.8051 14.6488 13.2343 14.5871C13.7126 14.5113 14.7068 13.9863 14.9143 13.3988C15.1268 12.8113 15.1268 12.3238 15.0643 12.2113C15.0026 12.0988 14.8393 12.0363 14.5893 11.9238Z" fill="black"/>
<path d="M17.1 2.87453C10.6925 -3.31964 0.0883333 1.17286 0.0841667 9.91119C0.0841667 11.6579 0.541667 13.3612 1.41333 14.8654L0 20.0004L5.27917 18.6237C11.8667 22.182 19.9967 17.457 20 9.91619C20 7.26953 18.9667 4.77869 17.0875 2.90703L17.1 2.87453ZM18.335 9.88869C18.33 16.2495 11.3475 20.222 5.825 16.9754L5.525 16.797L2.4 17.6095L3.2375 14.572L3.03833 14.2595C-0.398333 8.78869 3.55 1.63869 10.06 1.63869C11.1471 1.63596 12.224 1.84888 13.2283 2.26513C14.2326 2.68138 15.1444 3.2927 15.9108 4.06369C16.6815 4.82501 17.2927 5.7322 17.7089 6.73231C18.1251 7.73243 18.338 8.80543 18.335 9.88869Z" fill="black"/>
</g>
<defs>
<clipPath id="clip0_3009_5394">
<rect width="20" height="20" fill="white"/>
</clipPath>
</defs>
</svg>
