<svg width="20" height="20" viewBox="0 0 20 20" fill="none" xmlns="http://www.w3.org/2000/svg">
<path d="M9.99926 17.488H9.99394C9.39043 17.4839 4.05535 17.4352 2.54383 17.0264C1.48747 16.7424 0.653599 15.9094 0.368833 14.853C-0.0266744 13.368 -0.00147915 10.5094 0.00125522 10.281C-0.0013229 10.0539 -0.0268307 7.17148 0.367661 5.67441C0.368052 5.67305 0.368403 5.67152 0.368833 5.67015C0.650356 4.6257 1.50305 3.76691 2.54125 3.48219C2.54383 3.48141 2.54657 3.48082 2.54918 3.48008C4.04364 3.08734 9.38922 3.03926 9.99394 3.03516H10.0048C10.6098 3.03926 15.9591 3.08797 17.4567 3.49734C18.5103 3.78055 19.3436 4.61246 19.6291 5.66762C20.0394 7.1657 20.0014 10.0543 19.9973 10.2982C20.0002 10.5384 20.0241 13.3714 19.6309 14.8637C19.6306 14.8653 19.6301 14.8667 19.6298 14.868C19.345 15.9246 18.5112 16.7575 17.4537 17.0418C17.4523 17.0423 17.4507 17.0426 17.4494 17.043C15.9551 17.4356 10.6093 17.4837 10.0048 17.488H9.9993H9.99926ZM1.87793 6.07515C1.53067 7.39656 1.56348 10.2422 1.56375 10.2709V10.2915C1.5534 11.0807 1.58985 13.3661 1.87809 14.4486C2.01786 14.9669 2.42911 15.3775 2.95063 15.5177C4.06586 15.8194 8.41117 15.9143 9.99926 15.9255C11.5915 15.9143 15.9432 15.822 17.0502 15.5324C17.5701 15.3917 17.9799 14.9825 18.1206 14.4635C18.4091 13.3652 18.4453 11.0909 18.4348 10.3067C18.4348 10.2985 18.4348 10.2902 18.435 10.282C18.4493 9.48336 18.421 7.17121 18.122 6.08008C18.1217 6.07901 18.1214 6.07793 18.1212 6.07683C17.9809 5.55621 17.5694 5.14558 17.0479 5.00535C15.9435 4.7034 11.5912 4.60879 9.99926 4.59766C8.40808 4.60879 4.06071 4.70098 2.95032 4.99023C2.43871 5.13219 2.01817 5.55742 1.87793 6.07515ZM8.00785 13.4255V7.0975L13.4766 10.2616L8.00785 13.4255Z" fill="black"/>
</svg>
