<svg width="20" height="20" viewBox="0 0 20 20" fill="none" xmlns="http://www.w3.org/2000/svg">
<path d="M9.99926 17.487H9.99394C9.39043 17.4829 4.05535 17.4342 2.54383 17.0254C1.48747 16.7414 0.653599 15.9085 0.368833 14.852C-0.0266744 13.3671 -0.00147915 10.5084 0.00125522 10.2801C-0.0013229 10.0529 -0.0268307 7.17051 0.367661 5.67344C0.368052 5.67207 0.368403 5.67055 0.368833 5.66918C0.650356 4.62473 1.50305 3.76594 2.54125 3.48121C2.54383 3.48043 2.54657 3.47984 2.54918 3.4791C4.04364 3.08637 9.38922 3.03828 9.99394 3.03418H10.0048C10.6098 3.03828 15.9591 3.08699 17.4567 3.49637C18.5103 3.77957 19.3436 4.61148 19.6291 5.66664C20.0394 7.16472 20.0014 10.0534 19.9973 10.2972C20.0002 10.5374 20.0241 13.3705 19.6309 14.8628C19.6306 14.8643 19.6301 14.8657 19.6298 14.8671C19.345 15.9236 18.5112 16.7566 17.4537 17.0408C17.4523 17.0413 17.4507 17.0416 17.4494 17.0421C15.9551 17.4346 10.6093 17.4827 10.0048 17.487H9.9993H9.99926ZM1.87793 6.07418C1.53067 7.39558 1.56348 10.2412 1.56375 10.2699V10.2905C1.5534 11.0797 1.58985 13.3651 1.87809 14.4476C2.01786 14.966 2.42911 15.3765 2.95063 15.5167C4.06586 15.8184 8.41117 15.9134 9.99926 15.9245C11.5915 15.9134 15.9432 15.821 17.0502 15.5314C17.5701 15.3907 17.9799 14.9815 18.1206 14.4625C18.4091 13.3642 18.4453 11.0899 18.4348 10.3057C18.4348 10.2975 18.4348 10.2893 18.435 10.2811C18.4493 9.48238 18.421 7.17023 18.122 6.0791C18.1217 6.07804 18.1214 6.07695 18.1212 6.07586C17.9809 5.55523 17.5694 5.14461 17.0479 5.00437C15.9435 4.70242 11.5912 4.60781 9.99926 4.59668C8.40809 4.60781 4.06071 4.7 2.95032 4.98926C2.43871 5.13121 2.01817 5.55644 1.87793 6.07418ZM8.00785 13.4245V7.09652L13.4766 10.2606L8.00785 13.4245Z" fill="#1F2832"/>
</svg>
