<svg width="14" height="14" viewBox="0 0 14 14" fill="none" xmlns="http://www.w3.org/2000/svg">
<path d="M11.1538 4.30768H2.84615C1.82655 4.30768 1 5.13423 1 6.15383V11.2308C1 12.2504 1.82655 13.0769 2.84615 13.0769H11.1538C12.1735 13.0769 13 12.2504 13 11.2308V6.15383C13 5.13423 12.1735 4.30768 11.1538 4.30768Z" stroke="#000" stroke-linecap="round" stroke-linejoin="round"/>
<path d="M4.23047 13.0769V4.30768" stroke="#000" stroke-linecap="round" stroke-linejoin="round"/>
<path d="M9.76953 13.0769V4.30768" stroke="#000" stroke-linecap="round" stroke-linejoin="round"/>
<path d="M4.69238 4.30769C4.69238 3.69566 4.93551 3.10868 5.36829 2.6759C5.80106 2.24313 6.38804 2 7.00008 2C7.61211 2 8.19909 2.24313 8.63186 2.6759C9.06464 3.10868 9.30777 3.69566 9.30777 4.30769" stroke="#000" stroke-linecap="round" stroke-linejoin="round"/>
</svg>
