<svg width="14" height="14" viewBox="0 0 14 14" fill="none" xmlns="http://www.w3.org/2000/svg">
<g clip-path="url(#clip0_397_1301)">
<path d="M12.5633 5.3894C12.5633 8.72341 9.99157 12.7676 6.81923 12.7676C3.64689 12.7676 1.0752 8.72341 1.0752 5.3894C1.0752 2.0554 3.64689 0.694115 6.81923 0.694115C9.99157 0.694115 12.5633 2.0554 12.5633 5.3894Z" stroke="#000" stroke-linecap="round" stroke-linejoin="round"/>
<path d="M10.6162 10.673C9.6039 11.9163 8.2749 12.7676 6.81948 12.7676C5.36528 12.7676 4.0373 11.9178 3.02539 10.6761C3.66652 8.93118 5.12488 8.18323 6.82134 8.18323C8.51677 8.18323 9.9744 8.93028 10.6162 10.673Z" stroke="#000" stroke-linecap="round" stroke-linejoin="round"/>
<path d="M2.14304 12.2662L1.0752 13.269" stroke="#000" stroke-linecap="round" stroke-linejoin="round"/>
<path d="M11.8555 12.2662L12.9234 13.269" stroke="#000" stroke-linecap="round" stroke-linejoin="round"/>
<path d="M9.14459 3.365H4.49659C3.79463 3.365 3.22559 3.93404 3.22559 4.636C3.22559 5.33795 3.79463 5.907 4.49659 5.907H9.14459C9.84654 5.907 10.4156 5.33795 10.4156 4.636C10.4156 3.93404 9.84654 3.365 9.14459 3.365Z" stroke="#000" stroke-linecap="round" stroke-linejoin="round"/>
</g>
<defs>
<clipPath id="clip0_397_1301">
<rect width="14" height="14" fill="white"/>
</clipPath>
</defs>
</svg>
