<svg width="16" height="15" viewBox="0 0 16 15" fill="none" xmlns="http://www.w3.org/2000/svg">
<path d="M4.5 8.09355C4.5 7.50618 4.94771 7.03002 5.50001 7.03002C6.05229 7.03002 6.5 7.50618 6.5 8.09355" stroke="#000" stroke-miterlimit="10"/>
<path d="M9.5 8.09355C9.5 7.50618 9.94771 7.03002 10.5 7.03002C11.0523 7.03002 11.5 7.50618 11.5 8.09355" stroke="#000" stroke-miterlimit="10"/>
<path d="M6.27637 10.2207C6.62425 10.8477 7.26557 11.2686 7.99967 11.2686C8.73377 11.2686 9.3751 10.8477 9.72298 10.2207" stroke="#000" stroke-miterlimit="10"/>
<path d="M15 7.90821C15 8.77873 14.3444 9.48645 13.5294 9.50282C12.8707 12.0937 10.6446 14 8 14C5.35539 14 3.12934 12.0937 2.47058 9.50282C1.65556 9.48645 1 8.77873 1 7.90821C1 7.4677 1.16788 7.06889 1.43917 6.78005C1.70436 6.49832 2.06801 6.32162 2.47058 6.31359C3.12934 3.72273 5.35539 1.81642 8 1.81642C10.6446 1.81642 12.8707 3.72273 13.5294 6.31359C13.932 6.32162 14.2956 6.49832 14.5608 6.78005C14.8321 7.06889 15 7.4677 15 7.90821Z" stroke="#000" stroke-miterlimit="10"/>
<path d="M6.13611 3.79879C6.13611 4.89361 6.97059 5.78112 8 5.78112C9.0294 5.78112 9.86391 4.89361 9.86391 3.79879C9.86391 2.70396 9.0294 1.81645 8 1.81645H7.70788C6.76466 1.81645 6 1.0032 6 2.87851e-06" stroke="#000" stroke-miterlimit="10"/>
<path d="M7.99999 1.81641H5.70788C4.76463 1.81641 4 1.00316 4 -1.03365e-05" stroke="#000" stroke-miterlimit="10"/>
</svg>
