<svg width="14" height="14" viewBox="0 0 14 14" fill="none" xmlns="http://www.w3.org/2000/svg">
<g clip-path="url(#clip0_397_1346)">
<path d="M11.5896 1C10.6963 1 9.96042 1.73584 9.96042 2.62917C9.96042 3.52249 10.6963 4.25833 11.5896 4.25833C12.4829 4.25833 13.2188 3.52249 13.2188 2.62917C13.2188 1.73584 12.4829 1 11.5896 1ZM2.91753 1.11893L2.28976 1.98402L5.71807 4.47881C5.65833 4.54235 5.58828 4.60209 5.53126 4.66563C4.82691 5.43568 4.96919 6.68308 5.83645 7.26197L7.83924 8.58594L5.76857 9.80782L1.54306 7.3809L1 8.33125L10.5203 13.796C10.537 13.8024 10.5541 13.8078 10.5714 13.8123C10.5714 13.8123 10.9553 13.9997 11.4538 14.0333C11.9523 14.067 12.661 13.9231 13.1172 13.3035L12.2516 12.6589C12.0523 12.9304 11.8209 12.9662 11.5385 12.9472C11.3758 12.9379 11.2155 12.9035 11.0634 12.8451L11.0129 12.8288L6.83785 10.4356L8.3823 9.51891C9.05025 9.12248 9.08012 8.11892 8.43334 7.6861L6.44739 6.36267C6.36939 6.31218 6.30342 6.2452 6.25412 6.16644C6.20482 6.08768 6.1734 5.99908 6.16206 5.90686C6.15072 5.81464 6.15974 5.72105 6.18849 5.6327C6.21724 5.54435 6.26502 5.46338 6.32846 5.39549C6.61519 5.08161 6.93342 4.74383 7.2283 4.46198C7.65243 4.05469 8.21015 3.86788 8.65382 3.78316C8.77275 3.75981 8.85747 3.84018 8.85747 3.96997L8.87431 6.14219V6.39634L9.09479 6.56632L11.2502 8.21232L11.9122 7.36407L9.96042 5.87067L9.94358 3.96997C9.93924 3.18688 9.21154 2.56346 8.43334 2.71388C7.85608 2.8263 7.10937 3.07882 6.4816 3.68107L2.91753 1.11893ZM11.5896 2.08611C11.8953 2.08611 12.1326 2.32397 12.1326 2.62917C12.1326 2.93436 11.8948 3.17222 11.5896 3.17222C11.2844 3.17222 11.0465 2.93436 11.0465 2.62917C11.0465 2.32397 11.2844 2.08611 11.5896 2.08611Z" fill="#000"/>
</g>
<defs>
<clipPath id="clip0_397_1346">
<rect width="14" height="14" fill="white"/>
</clipPath>
</defs>
</svg>
