<svg width="14" height="14" viewBox="0 0 14 14" fill="none" xmlns="http://www.w3.org/2000/svg">
<g clip-path="url(#clip0_397_1320)">
<path d="M10.5998 4.301C11.5939 4.301 12.3998 3.49512 12.3998 2.501C12.3998 1.50689 11.5939 0.701004 10.5998 0.701004C9.60569 0.701004 8.7998 1.50689 8.7998 2.501C8.7998 3.49512 9.60569 4.301 10.5998 4.301Z" stroke="#000" stroke-linecap="round" stroke-linejoin="round"/>
<path d="M13.3002 8.80125V7.90123C13.3002 6.41003 12.0914 5.20117 10.6002 5.20117C9.58338 5.20117 8.6978 5.76328 8.2373 6.59371" stroke="#000" stroke-linecap="round" stroke-linejoin="round"/>
<path d="M3.40059 4.301C4.3947 4.301 5.20059 3.49512 5.20059 2.501C5.20059 1.50689 4.3947 0.701004 3.40059 0.701004C2.40647 0.701004 1.60059 1.50689 1.60059 2.501C1.60059 3.49512 2.40647 4.301 3.40059 4.301Z" stroke="#000" stroke-linecap="round" stroke-linejoin="round"/>
<path d="M0.700195 8.80125V7.90123C0.700195 6.41003 1.90905 5.20117 3.40025 5.20117C4.4171 5.20117 5.30266 5.76328 5.76316 6.59371" stroke="#000" stroke-linecap="round" stroke-linejoin="round"/>
<path d="M7.00117 9.69901C7.99528 9.69901 8.80117 8.89312 8.80117 7.89901C8.80117 6.90489 7.99528 6.09901 7.00117 6.09901C6.00706 6.09901 5.20117 6.90489 5.20117 7.89901C5.20117 8.89312 6.00706 9.69901 7.00117 9.69901Z" stroke="#000" stroke-linecap="round" stroke-linejoin="round"/>
<path d="M9.70187 13.2989C9.70187 11.8077 8.49301 10.5989 7.00181 10.5989C5.51061 10.5989 4.30176 11.8077 4.30176 13.2989" stroke="#000" stroke-linecap="round" stroke-linejoin="round"/>
</g>
<defs>
<clipPath id="clip0_397_1320">
<rect width="14" height="14" fill="white"/>
</clipPath>
</defs>
</svg>
