<svg width="14" height="14" viewBox="0 0 14 14" fill="none" xmlns="http://www.w3.org/2000/svg">
<path d="M11.1005 5.53778C12.9186 8.09808 11.5278 11.0306 10.8551 12.1746C10.7564 12.3346 10.6239 12.4711 10.4669 12.5747C10.3098 12.6781 10.1321 12.7461 9.94602 12.7737C8.62787 13.0007 5.3462 13.255 3.58265 10.6947C1.84636 8.27966 1.91908 4.03067 2.07362 2.00604C2.07971 1.8552 2.12158 1.70797 2.1958 1.57644C2.27001 1.44493 2.37444 1.33289 2.50048 1.24956C2.62652 1.16623 2.77056 1.11399 2.92078 1.09714C3.07099 1.08028 3.22306 1.0993 3.36447 1.15261C5.31893 1.71552 9.39148 3.12277 11.1005 5.53778Z" stroke="#000" stroke-linecap="round" stroke-linejoin="round"/>
<path d="M4.97266 4.69342C7.05486 7.14409 8.88235 9.79969 10.427 12.6194" stroke="#000" stroke-linecap="round" stroke-linejoin="round"/>
</svg>
