<svg width="20" height="20" viewBox="0 0 20 20" fill="none" xmlns="http://www.w3.org/2000/svg">
<g opacity="0.2">
<path d="M12.4389 15.8334C12.6119 15.8366 12.7816 15.7859 12.9246 15.6884C13.0675 15.5909 13.1767 15.4514 13.2369 15.2892C13.297 15.1269 13.3053 14.95 13.2605 14.7828C13.2158 14.6157 13.1201 14.4666 12.9869 14.3562L7.88767 9.99083L12.99 5.62548C13.0832 5.55753 13.1614 5.47099 13.2195 5.37133C13.2775 5.27167 13.3143 5.16105 13.3275 5.04645C13.3407 4.93185 13.33 4.81577 13.2961 4.70551C13.2622 4.59526 13.2057 4.49324 13.1304 4.40589C13.0551 4.31854 12.9624 4.24775 12.8584 4.198C12.7543 4.14825 12.641 4.12061 12.5257 4.11682C12.4104 4.11304 12.2956 4.1332 12.1885 4.17602C12.0814 4.21885 11.9843 4.28341 11.9034 4.36564L6.07035 9.35146C5.97861 9.42982 5.90495 9.52713 5.85445 9.63669C5.80394 9.74626 5.77779 9.86546 5.77779 9.98611C5.77779 10.1068 5.80394 10.226 5.85445 10.3355C5.90495 10.4451 5.97861 10.5424 6.07035 10.6208L11.9034 15.6223C12.0512 15.7539 12.241 15.8287 12.4389 15.8334Z" fill="#323D48"/>
</g>
</svg>
