<svg width="20" height="20" viewBox="0 0 20 20" fill="none" xmlns="http://www.w3.org/2000/svg">
<path d="M7.56115 4.16681C7.38813 4.1636 7.2184 4.21425 7.07543 4.31174C6.93247 4.40924 6.82334 4.54876 6.76315 4.71099C6.70296 4.87323 6.69468 5.05017 6.73946 5.21732C6.78425 5.38447 6.87988 5.53356 7.01312 5.64398L12.1123 10.0093L7.00997 14.3747C6.91675 14.4426 6.83864 14.5292 6.78055 14.6288C6.72246 14.7285 6.68566 14.8391 6.67247 14.9537C6.65928 15.0683 6.66999 15.1844 6.70392 15.2946C6.73785 15.4049 6.79426 15.5069 6.8696 15.5943C6.94494 15.6816 7.03757 15.7524 7.14165 15.8022C7.24572 15.8519 7.35898 15.8796 7.47427 15.8833C7.58956 15.8871 7.70439 15.867 7.8115 15.8241C7.91861 15.7813 8.01568 15.7168 8.09658 15.6345L13.9297 10.6487C14.0214 10.5703 14.095 10.473 14.1456 10.3635C14.1961 10.2539 14.2222 10.1347 14.2222 10.0141C14.2222 9.89341 14.1961 9.7742 14.1456 9.66464C14.095 9.55508 14.0214 9.45777 13.9297 9.37941L8.09658 4.37783C7.94877 4.24624 7.759 4.17145 7.56115 4.16681Z" fill="#E21A55"/>
</svg>
