<svg width="340" height="340" viewBox="0 0 340 340" fill="none" xmlns="http://www.w3.org/2000/svg">
<g clip-path="url(#clip0_3109_2)">
<path fill-rule="evenodd" clip-rule="evenodd" d="M170 340C418.5 340 340 373.5 340 170C340 -39.4996 430.5 0.000211922 170 0.000314713C-58.9999 0.000405073 -0.0010208 -61.4993 -0.000319958 170C0.000426292 416.5 -56 340 170 340ZM265.348 153.682H288.961V50.0584H223.566L265.348 69.8821V153.682ZM150.922 188.826C144.562 185.221 134.574 182.518 124.582 182.518C113.684 182.518 108.234 187.023 108.234 194.232C108.234 200.54 112.777 204.144 125.492 208.649C142.746 214.957 154.555 223.968 154.555 239.286C154.555 257.308 140.023 270.824 114.594 270.824C102.785 270.824 93.7028 268.121 88.2536 265.417L93.7028 246.495C98.2458 248.297 105.512 251 115.5 251C125.492 251 130.941 246.495 130.941 241.088C130.941 234.781 124.582 231.176 111.867 226.671C93.7028 219.462 84.6208 210.452 84.6208 196.034C84.6208 178.914 98.2458 163.595 127.309 163.595C139.113 163.595 150.922 166.298 157.281 169.903L150.922 188.826ZM51.0231 185.223H74.6364V269.023L116.418 288.847H51.0231V185.223ZM184.551 266.316V289.744H289V224.866L269.02 266.316H184.551ZM188.172 190.625C184.539 196.933 181.816 206.844 181.816 216.756C181.816 227.569 186.355 232.976 192.715 232.976C199.07 232.976 202.703 228.47 207.246 215.855C213.602 198.734 222.688 187.021 238.125 187.021C256.289 187.021 269.914 201.438 269.914 226.668C269.914 238.382 267.188 247.393 264.465 252.799L245.391 247.393C247.207 242.887 249.934 235.679 249.934 225.767C249.934 215.855 245.391 210.449 239.941 210.449C233.586 210.449 229.953 215.855 225.41 229.371C218.145 247.393 209.062 256.404 194.531 256.404C177.273 256.404 161.836 242.887 161.836 214.053C161.836 202.339 164.559 190.625 168.191 184.317L188.172 190.625ZM189.059 150.077C195.418 153.681 205.406 156.384 215.398 156.384C226.297 156.384 231.746 151.879 231.746 145.571C232.652 139.264 227.203 135.66 214.488 131.154C197.234 124.847 185.426 115.836 185.426 100.518C185.426 82.4964 199.957 68.9803 225.387 68.9803C237.195 68.9803 246.277 71.6834 251.727 74.3865L246.277 93.3094C241.734 91.5071 234.469 88.804 224.48 88.804C214.488 88.804 209.039 93.3094 209.039 98.7156C209.039 105.023 215.398 108.627 228.113 113.133C246.277 120.341 255.359 129.352 255.359 143.77C255.359 160.89 241.734 176.208 212.672 176.208C200.867 176.208 189.059 173.505 182.699 169.901L189.059 150.077ZM155.469 73.4866V50.0584H51.0231V114.936L71.0036 73.4866H155.469ZM151.852 149.178C155.484 142.87 158.207 132.958 158.207 123.046C158.207 112.234 153.668 106.827 147.309 106.827C140.953 106.827 137.32 111.333 132.777 123.948C126.418 141.068 117.336 152.782 101.898 152.782C83.7341 152.782 70.1091 138.365 70.1091 113.135C70.1091 101.421 72.8317 92.4105 75.5583 87.0037L94.6325 92.4105C92.8161 96.0145 89.1833 103.223 89.1833 114.036C89.1833 123.948 93.7224 129.354 99.1716 129.354C105.531 129.354 109.164 123.046 113.703 110.432C120.969 92.4105 130.051 83.3992 144.586 83.3992C161.84 83.3992 177.281 96.9158 177.281 125.75C177.281 137.464 174.555 149.178 170.922 155.485L151.852 149.178Z" fill="white"/>
</g>
<defs>
<clipPath id="clip0_3109_2">
<rect width="340" height="340" fill="white"/>
</clipPath>
</defs>
</svg>
