<svg width="25" height="25" fill="none" xmlns="http://www.w3.org/2000/svg"><path d="m18.153 8.612 1.488-1.488-1.06-1.233h-2.554l-1.06 1.233 1.487 1.488a7.692 7.692 0 0 0-3.954 1.636 7.692 7.692 0 0 0-3.954-1.636l1.488-1.488-1.06-1.233H6.42L5.36 7.124l1.487 1.488C3.002 9.036 0 12.305 0 16.262c0 4.243 3.453 7.696 7.697 7.696 1.745 0 3.44-.593 4.803-1.683a7.693 7.693 0 0 0 4.803 1.683c4.244 0 7.697-3.453 7.697-7.697 0-3.956-3.002-7.225-6.847-7.649Zm-2.175-1.526.39-.453h1.872l.389.453-1.326 1.325-1.325-1.325Zm-9.607 0 .39-.453h1.871l.39.453L7.696 8.41 6.371 7.086Zm1.326 16.13A6.962 6.962 0 0 1 .743 16.26a6.962 6.962 0 0 1 6.954-6.954 6.95 6.95 0 0 1 5.615 2.853 6.9 6.9 0 0 1 1.338 4.101c0 1.347-.38 2.637-1.101 3.758l-.028-.029a5.705 5.705 0 0 1-.12-.126c-.018-.018-.035-.038-.052-.057a4.934 4.934 0 0 1-.238-.284l-.049-.064a5.157 5.157 0 0 1-.093-.128l-.03-.04c.532-.919.812-1.961.812-3.03 0-1.07-.28-2.114-.814-3.034l.003-.004-.126-.2a6.071 6.071 0 0 0-1.184-1.365l-.305-.26-.007.01a6.057 6.057 0 0 0-3.621-1.201 6.062 6.062 0 0 0-6.055 6.054 6.062 6.062 0 0 0 6.055 6.055 6.057 6.057 0 0 0 3.628-1.208l.014.017.08.096.063.073c.028.034.057.066.087.099l.06.067c.031.035.064.069.097.103l.054.058.121.121.033.033a6.95 6.95 0 0 1-4.237 1.44Zm6.418-11.202a5.313 5.313 0 0 1 3.188-1.065 5.318 5.318 0 0 1 5.313 5.312 5.318 5.318 0 0 1-5.313 5.313 5.312 5.312 0 0 1-3.188-1.066 7.634 7.634 0 0 0 1.278-4.247c0-1.525-.44-2.986-1.278-4.247ZM12.5 18.53a5.302 5.302 0 0 1 0-4.537 5.302 5.302 0 0 1 0 4.537Zm-1.615-6.516a7.634 7.634 0 0 0-1.278 4.247c0 1.526.44 2.987 1.278 4.248a5.312 5.312 0 0 1-3.188 1.065 5.318 5.318 0 0 1-5.313-5.313 5.318 5.318 0 0 1 5.313-5.312c1.152 0 2.272.377 3.188 1.065Zm6.418 11.201a6.95 6.95 0 0 1-5.615-2.852 6.9 6.9 0 0 1-1.338-4.102c0-1.346.38-2.636 1.101-3.757l.028.029.12.125.051.057a5.293 5.293 0 0 1 .239.285l.049.063c.031.042.063.085.093.129l.03.04a6.039 6.039 0 0 0-.812 3.03c0 1.07.28 2.114.814 3.033l-.003.005.126.199c.325.512.724.972 1.184 1.366l.305.26.007-.011a6.057 6.057 0 0 0 3.621 1.202 6.062 6.062 0 0 0 6.055-6.055 6.062 6.062 0 0 0-6.055-6.054 6.057 6.057 0 0 0-3.628 1.208l-.014-.017-.08-.096-.063-.074-.086-.097-.06-.068-.096-.101-.056-.06a9.078 9.078 0 0 0-.116-.116l-.038-.038a6.952 6.952 0 0 1 4.237-1.44 6.962 6.962 0 0 1 6.954 6.954 6.962 6.962 0 0 1-6.954 6.953ZM12.13 1.043h.742v2.312h-.742V1.043Zm2.608 2.772.97-2.098.674.311-.97 2.098-.674-.311ZM8.618 2.029l.674-.312.97 2.098-.673.312-.97-2.098Z" fill="#fff"/></svg>