<svg width="27" height="27" fill="none" xmlns="http://www.w3.org/2000/svg"><path d="M5.586 17.323 3.991 21.94c-.242.7-.854 1.183-1.56 1.237-.52.04-.938.232-1.333.505-.148.101-.124.337.042.4l4.965 1.904c.166.064.329-.1.277-.278-.137-.477-.34-.906-.713-1.29a1.964 1.964 0 0 1-.44-2.003l1.631-4.722M5.253 8.283a2.485 2.485 0 0 1 1.755.014c.9.346 1.511 1.156 1.679 2.08" stroke="#fff" stroke-miterlimit="10" stroke-linecap="round" stroke-linejoin="round"/><path d="M4.697 9.52c.293.59.789 1.071 1.43 1.316a2.516 2.516 0 0 0 2.555-.461 2.517 2.517 0 0 1 2.554-.46c.593.226 1.06.653 1.359 1.182" stroke="#fff" stroke-miterlimit="10" stroke-linecap="round" stroke-linejoin="round"/><path d="M9.688 5.655 7.25 4.72a.376.376 0 0 0-.285.006.404.404 0 0 0-.207.207L3.88 11.342c-1.064 2.367.036 5.185 2.372 6.081 2.337.896 4.899-.518 5.53-3.052l1.705-6.859a.436.436 0 0 0-.032-.298.402.402 0 0 0-.215-.197l-1.806-.693M20.14 17.693l1.631 4.722a1.964 1.964 0 0 1-.44 2.004c-.374.383-.576.812-.713 1.289-.052.178.111.342.277.278l4.965-1.904c.166-.063.19-.299.042-.4-.395-.273-.813-.465-1.333-.505-.706-.054-1.318-.536-1.56-1.237l-.356-1.03M22.017 19.068l-.654-1.891M14.405 11.099a2.647 2.647 0 0 1 1.353-1.178 2.517 2.517 0 0 1 2.555.456" stroke="#fff" stroke-miterlimit="10" stroke-linecap="round" stroke-linejoin="round"/><path d="M14.734 12.422a2.487 2.487 0 0 0 1.899.04c.9-.347 1.51-1.158 1.675-2.083.167-.924.777-1.735 1.677-2.082a2.483 2.483 0 0 1 1.762-.015" stroke="#fff" stroke-miterlimit="10" stroke-linecap="round" stroke-linejoin="round"/><path d="M18.183 17.532c.814.237 1.704.22 2.564-.11 2.337-.895 3.436-3.713 2.373-6.081L20.24 4.93a.404.404 0 0 0-.206-.206.376.376 0 0 0-.285-.006l-5.99 2.297a.401.401 0 0 0-.215.197.436.436 0 0 0-.032.299l1.706 6.858a4.46 4.46 0 0 0 1.32 2.237M25.055 13.307l.531.002M24.828 11.907l.461-.29M25.28 14.999l-.459-.294M1.946 13.307l-.532.003M2.17 11.907l-.462-.29M1.722 14.999l.459-.295M15.55 1.394a1.238 1.238 0 0 0-1.816.003l-.235.249-.236-.248a1.238 1.238 0 0 0-1.815.003c-.5.53-.5 1.385.003 1.912l1.827 1.918c.06.064.142.1.227.1a.313.313 0 0 0 .227-.1l1.82-1.925c.501-.529.5-1.385-.002-1.912Z" stroke="#fff" stroke-miterlimit="10" stroke-linecap="round" stroke-linejoin="round"/></svg>