<svg width="27" height="29" fill="none" xmlns="http://www.w3.org/2000/svg"><path d="M2.154 16.303a11.34 11.34 0 0 1 5.518-9.167.472.472 0 1 1 .485.81 10.398 10.398 0 0 0-5.06 8.406.472.472 0 0 1-.943-.05Zm17.012-8.156a10.398 10.398 0 0 1 4.75 8.584.472.472 0 0 0 .471.465h.008a.472.472 0 0 0 .465-.48 11.341 11.341 0 0 0-5.18-9.362.471.471 0 1 0-.514.793Zm-.929 18.018a10.399 10.399 0 0 1-9.81-.179.472.472 0 1 0-.459.825 11.349 11.349 0 0 0 10.698.195.473.473 0 0 0-.429-.841ZM9.52 8.45c0-1.634.99-3.04 2.401-3.653a2.327 2.327 0 0 1-.754-1.716A2.336 2.336 0 0 1 13.5.748a2.336 2.336 0 0 1 2.333 2.333c0 .678-.29 1.29-.754 1.716A3.986 3.986 0 0 1 17.48 8.45a.472.472 0 0 1-.473.473H9.993a.472.472 0 0 1-.472-.473Zm3.98-3.98a1.39 1.39 0 0 0 1.389-1.389A1.39 1.39 0 0 0 13.5 1.692a1.39 1.39 0 0 0-1.389 1.39A1.39 1.39 0 0 0 13.5 4.47Zm-3 3.508h6a3.041 3.041 0 0 0-3-2.564 3.041 3.041 0 0 0-3 2.564ZM7.49 25.843H.472A.472.472 0 0 1 0 25.371c0-1.634.99-3.04 2.402-3.653a2.327 2.327 0 0 1-.754-1.716 2.336 2.336 0 0 1 2.333-2.333 2.336 2.336 0 0 1 2.333 2.333c0 .678-.291 1.29-.755 1.716a3.986 3.986 0 0 1 2.402 3.653.472.472 0 0 1-.472.472ZM3.98 21.391A1.39 1.39 0 0 0 5.369 20a1.39 1.39 0 0 0-1.388-1.388 1.39 1.39 0 0 0-1.39 1.389 1.39 1.39 0 0 0 1.39 1.389Zm3 3.508a3.041 3.041 0 0 0-3-2.564 3.041 3.041 0 0 0-3 2.564h6Zm20.02.472a.472.472 0 0 1-.473.472h-7.017a.472.472 0 0 1-.472-.472c0-1.634.99-3.04 2.402-3.653a2.327 2.327 0 0 1-.754-1.716 2.336 2.336 0 0 1 2.333-2.333 2.336 2.336 0 0 1 2.333 2.333c0 .678-.291 1.29-.755 1.716A3.986 3.986 0 0 1 27 25.37Zm-3.981-3.98A1.39 1.39 0 0 0 24.408 20a1.39 1.39 0 0 0-1.388-1.388 1.39 1.39 0 0 0-1.39 1.389 1.39 1.39 0 0 0 1.39 1.389Zm3 3.508a3.041 3.041 0 0 0-3-2.564 3.041 3.041 0 0 0-3 2.564h6Zm-15.187-8.011A2.67 2.67 0 0 1 13.5 14.22a2.67 2.67 0 0 1 2.667 2.668 2.67 2.67 0 0 1-2.667 2.667 2.67 2.67 0 0 1-2.667-2.667Zm.944 0c0 .95.773 1.723 1.723 1.723.95 0 1.723-.773 1.723-1.723 0-.95-.773-1.723-1.723-1.723-.95 0-1.723.773-1.723 1.723Zm-2.876-2.655c.203-.352.203-.79 0-1.142a1.264 1.264 0 0 1 .312-1.636 6.912 6.912 0 0 1 1.723-.998 1.264 1.264 0 0 1 1.576.548c.203.353.581.573.988.573.407 0 .785-.22.988-.573a1.264 1.264 0 0 1 1.576-.548c.62.248 1.2.584 1.723.997.501.396.633 1.085.313 1.637-.204.352-.204.79-.001 1.142.203.351.581.57.988.57h.003c.64 0 1.169.458 1.26 1.091.095.66.095 1.328 0 1.987a1.264 1.264 0 0 1-1.26 1.092h-.003c-.407 0-.785.218-.988.57-.203.352-.203.789 0 1.141.32.553.19 1.241-.312 1.637a6.912 6.912 0 0 1-1.723.997 1.264 1.264 0 0 1-1.576-.548 1.143 1.143 0 0 0-.988-.572c-.407 0-.785.22-.988.572a1.263 1.263 0 0 1-1.576.548 6.908 6.908 0 0 1-1.723-.997 1.264 1.264 0 0 1-.313-1.637c.204-.352.204-.79.001-1.141a1.143 1.143 0 0 0-.988-.57H7.91c-.64 0-1.169-.459-1.26-1.091a6.996 6.996 0 0 1 0-1.988 1.264 1.264 0 0 1 1.26-1.091h.003c.407 0 .785-.219.988-.57Zm-.987 1.514H7.91a.327.327 0 0 0-.326.282 6.048 6.048 0 0 0 0 1.718.327.327 0 0 0 .326.282h.003A2.09 2.09 0 0 1 9.72 19.07a2.09 2.09 0 0 1-.002 2.086.327.327 0 0 0 .081.423c.452.358.953.648 1.488.861a.327.327 0 0 0 .407-.141 2.09 2.09 0 0 1 1.807-1.046c.743 0 1.436.4 1.807 1.046a.327.327 0 0 0 .407.141 5.969 5.969 0 0 0 1.488-.86.327.327 0 0 0 .08-.424 2.09 2.09 0 0 1-.001-2.086 2.093 2.093 0 0 1 1.808-1.042.327.327 0 0 0 .327-.282 6.048 6.048 0 0 0 0-1.718.327.327 0 0 0-.326-.282h-.004a2.09 2.09 0 0 1-1.805-1.042 2.09 2.09 0 0 1 .002-2.087.327.327 0 0 0-.081-.423 5.965 5.965 0 0 0-1.488-.86.327.327 0 0 0-.407.141 2.09 2.09 0 0 1-1.807 1.046 2.09 2.09 0 0 1-1.807-1.046.326.326 0 0 0-.407-.142 5.967 5.967 0 0 0-1.488.861.327.327 0 0 0-.08.423 2.09 2.09 0 0 1 .001 2.087 2.09 2.09 0 0 1-1.805 1.042Z" fill="#fff"/></svg>