<svg width="25" height="25" fill="none" xmlns="http://www.w3.org/2000/svg"><g clip-path="url(#a)" fill="#fff"><path d="M9.134 15.073a.494.494 0 0 0-.134-.25.491.491 0 0 0-.75.075.484.484 0 0 0-.045.458.497.497 0 0 0 .264.264.492.492 0 0 0 .675-.451.48.48 0 0 0-.01-.096Z"/><path d="M24.512 23.505H23.5v-7.363c0-.806-.655-1.461-1.461-1.461h-.834V9.864c0-.806-.656-1.461-1.462-1.461h-1.499V6.985a1.982 1.982 0 0 0 1.29-2.798l-1.34-2.715a.488.488 0 0 0-.876 0l-1.34 2.715a1.981 1.981 0 0 0 1.29 2.798v1.418h-4.28v-2.1a1.982 1.982 0 0 0 1.29-2.798L12.938.791a.488.488 0 0 0-.876 0l-1.34 2.714a1.982 1.982 0 0 0 1.29 2.799v2.099h-4.28V6.986a1.982 1.982 0 0 0 1.29-2.8l-1.34-2.714a.488.488 0 0 0-.876 0l-1.34 2.715a1.982 1.982 0 0 0 1.29 2.8v1.416h-1.5c-.805 0-1.46.655-1.46 1.461v4.817H2.96c-.806 0-1.461.655-1.461 1.461v7.364H.488a.488.488 0 1 0 0 .976h24.024a.488.488 0 1 0 0-.977Zm-7.467-17.73a1.005 1.005 0 0 1-.191-1.156l.902-1.828.902 1.828a1.006 1.006 0 0 1-1.613 1.156Zm-5.256-.68a1.006 1.006 0 0 1-.191-1.157L12.5 2.11l.902 1.828a1.006 1.006 0 0 1-1.613 1.156Zm-5.256.68a1.005 1.005 0 0 1-.191-1.156l.902-1.828.902 1.828a1.006 1.006 0 0 1-1.613 1.156ZM5.257 9.38h14.486c.268 0 .485.218.485.485v1.533a2.361 2.361 0 0 1-.72.099c-.728 0-1.06-.222-1.481-.502-.469-.312-1-.666-2.023-.666-1.024 0-1.555.354-2.023.666-.42.28-.753.502-1.481.502-.729 0-1.06-.222-1.481-.502-.469-.312-1-.666-2.023-.666-1.024 0-1.555.354-2.023.666-.42.28-.753.502-1.481.502-.273 0-.505-.031-.72-.099V9.864c0-.267.217-.485.485-.485Zm17.267 14.126H2.476v-4.692c.415.076.68.252.993.46.468.313 1 .667 2.023.667 1.024 0 1.554-.354 2.023-.666.42-.28.753-.502 1.48-.502.729 0 1.061.221 1.482.502.468.312.999.666 2.023.666s1.554-.354 2.023-.666c.42-.28.752-.502 1.48-.502.729 0 1.061.221 1.482.502.468.312.999.666 2.023.666s1.555-.354 2.023-.666c.313-.21.578-.385.993-.462v4.693Zm0-5.68c-.717.091-1.148.378-1.535.636-.42.28-.753.502-1.481.502-.728 0-1.06-.221-1.481-.502-.469-.312-1-.666-2.023-.666-1.024 0-1.555.354-2.023.666-.42.28-.753.502-1.481.502-.729 0-1.06-.221-1.482-.502-.468-.312-.998-.666-2.022-.666-1.024 0-1.555.354-2.023.666-.42.28-.753.502-1.481.502-.728 0-1.06-.221-1.481-.502-.388-.258-.818-.545-1.535-.636v-1.683c0-.267.218-.485.485-.485H6.71a.488.488 0 1 0 0-.976H4.772v-2.277c.224.046.462.068.72.068 1.024 0 1.554-.353 2.023-.666.42-.28.753-.502 1.48-.502.729 0 1.061.222 1.482.502.468.313.999.666 2.023.666 1.023 0 1.554-.353 2.023-.666.42-.28.752-.502 1.48-.502.729 0 1.061.222 1.482.502.468.313.999.666 2.023.666.258 0 .495-.022.72-.069v2.277h-9.626a.488.488 0 0 0 0 .977h11.437c.267 0 .485.218.485.485v1.683Z"/><path d="M4.762 22.292a.493.493 0 0 0-.384-.383.494.494 0 0 0-.501.207.493.493 0 0 0 .06.617.492.492 0 0 0 .533.106.496.496 0 0 0 .219-.18.493.493 0 0 0 .073-.367Zm5.248-1.46a.495.495 0 0 0-.292-.355.483.483 0 0 0-.593.18.493.493 0 0 0 0 .542.486.486 0 0 0 .812 0 .494.494 0 0 0 .073-.367Zm5.645 1.46a.491.491 0 0 0-.383-.383.483.483 0 0 0-.502.207.493.493 0 0 0 0 .543.525.525 0 0 0 .135.135.498.498 0 0 0 .271.082.492.492 0 0 0 .489-.488.49.49 0 0 0-.01-.096Zm5.54-1.168a.493.493 0 0 0-.134-.25.492.492 0 0 0-.69 0 .509.509 0 0 0-.134.25.483.483 0 0 0 .073.367.524.524 0 0 0 .135.135.491.491 0 0 0 .616-.06.499.499 0 0 0 .134-.442Zm-4.859-7.981a.51.51 0 0 0-.133-.25.467.467 0 0 0-.25-.134.483.483 0 0 0-.501.208.491.491 0 0 0 .06.617.465.465 0 0 0 .159.105.493.493 0 0 0 .373 0 .491.491 0 0 0 .292-.546Zm-6.375-.665a.493.493 0 0 0-.383-.383.483.483 0 0 0-.502.207.493.493 0 0 0 .06.617.492.492 0 0 0 .69 0 .493.493 0 0 0 .133-.44Z"/></g><defs><clipPath id="a"><path fill="#fff" d="M0 0h25v25H0z"/></clipPath></defs></svg>