<svg width="95" height="15" viewBox="0 0 95 15" fill="none" xmlns="http://www.w3.org/2000/svg">
<g clip-path="url(#clip0_3017_16)">
<path d="M20 7.5C23.75 7.5 27.5 3.75 27.5 0C27.5 3.75 31.25 7.5 35 7.5C31.25 7.5 27.5 11.25 27.5 15C27.5 11.25 23.75 7.5 20 7.5Z" fill="#E21A55"/>
</g>
<g clip-path="url(#clip1_3017_16)">
<path d="M40 7.5C43.75 7.5 47.5 3.75 47.5 0C47.5 3.75 51.25 7.5 55 7.5C51.25 7.5 47.5 11.25 47.5 15C47.5 11.25 43.75 7.5 40 7.5Z" fill="#E21A55"/>
</g>
<g clip-path="url(#clip2_3017_16)">
<path d="M0 7.5C3.75 7.5 7.5 3.75 7.5 0C7.5 3.75 11.25 7.5 15 7.5C11.25 7.5 7.5 11.25 7.5 15C7.5 11.25 3.75 7.5 0 7.5Z" fill="#E21A55"/>
</g>
<g clip-path="url(#clip3_3017_16)">
<path d="M80 7.5C83.75 7.5 87.5 3.75 87.5 0C87.5 3.75 91.25 7.5 95 7.5C91.25 7.5 87.5 11.25 87.5 15C87.5 11.25 83.75 7.5 80 7.5Z" fill="#E21A55"/>
</g>
<g clip-path="url(#clip4_3017_16)">
<path d="M60 7.5C63.75 7.5 67.5 3.75 67.5 0C67.5 3.75 71.25 7.5 75 7.5C71.25 7.5 67.5 11.25 67.5 15C67.5 11.25 63.75 7.5 60 7.5Z" fill="#E21A55"/>
</g>
<defs>
<clipPath id="clip0_3017_16">
<rect width="15" height="15" fill="white" transform="translate(20)"/>
</clipPath>
<clipPath id="clip1_3017_16">
<rect width="15" height="15" fill="white" transform="translate(40)"/>
</clipPath>
<clipPath id="clip2_3017_16">
<rect width="15" height="15" fill="white"/>
</clipPath>
<clipPath id="clip3_3017_16">
<rect width="15" height="15" fill="white" transform="translate(80)"/>
</clipPath>
<clipPath id="clip4_3017_16">
<rect width="15" height="15" fill="white" transform="translate(60)"/>
</clipPath>
</defs>
</svg>
