<svg width="22" height="22" viewBox="0 0 22 22" fill="none" xmlns="http://www.w3.org/2000/svg">
<path d="M21.8249 11.1909L21.8744 11.1414L21.9098 11.106L21.9451 11.0706L21.9381 10.9929C21.9254 10.9729 21.9085 10.956 21.8886 10.9434L18.1904 7.2452C18.106 7.16081 17.9915 7.1134 17.8722 7.1134C17.7528 7.1134 17.6384 7.16081 17.554 7.2452C17.4696 7.32959 17.4222 7.44405 17.4222 7.5634C17.4222 7.68275 17.4696 7.79721 17.554 7.8816L20.2693 10.5969L0.64 10.4979C0.519977 10.4979 0.404869 10.5456 0.32 10.6304C0.235131 10.7153 0.187452 10.8304 0.187452 10.9504C0.187452 11.0705 0.23513 11.1856 0.32 11.2704C0.404869 11.3553 0.519977 11.403 0.64 11.403L20.3966 11.3606L17.6388 14.1183C17.5575 14.2033 17.5127 14.3168 17.5141 14.4344C17.5154 14.552 17.5627 14.6644 17.6459 14.7476C17.6851 14.7929 17.7341 14.8286 17.7893 14.8519C17.8445 14.8752 17.9043 14.8855 17.9641 14.882C18.0806 14.8824 18.1925 14.8366 18.2752 14.7547L21.8108 11.2191L21.8249 11.1909Z" fill="white"/>
</svg>
