<svg width="14" height="14" viewBox="0 0 14 14" fill="none" xmlns="http://www.w3.org/2000/svg">
<g clip-path="url(#clip0_3009_5942)">
<path d="M12.2741 12.2345V6.39258H1.72266V12.2345C1.72266 12.7868 2.17038 13.2345 2.72266 13.2345H11.2741C11.8264 13.2345 12.2741 12.7868 12.2741 12.2345Z" stroke="#000000" stroke-linecap="round" stroke-linejoin="round"/>
<path d="M7 13.2344V6.39062" stroke="#000000" stroke-linecap="round" stroke-linejoin="round"/>
<path d="M13.1372 4.79199V5.3928C13.1372 5.94508 12.6895 6.3928 12.1372 6.3928H1.86133C1.30905 6.3928 0.861328 5.94508 0.861328 5.3928V4.79199C0.861328 4.23971 1.30905 3.79199 1.86133 3.79199H12.1372C12.6895 3.79199 13.1372 4.23971 13.1372 4.79199Z" stroke="#000000" stroke-linecap="round" stroke-linejoin="round"/>
<path d="M6.99897 3.79167C6.99897 2.91667 5.97814 0.875 4.44689 0.875C1.95578 0.875 2.86323 3.79167 4.05554 3.79167" stroke="#000000" stroke-linecap="round" stroke-linejoin="round"/>
<path d="M7 3.79167C7 2.91667 8.02083 0.875 9.55208 0.875C12.0432 0.875 11.1357 3.79167 9.94343 3.79167" stroke="#000000" stroke-linecap="round" stroke-linejoin="round"/>
</g>
<defs>
<clipPath id="clip0_3009_5942">
<rect width="14" height="14" fill="white"/>
</clipPath>
</defs>
</svg>
