<svg width="274" height="41" viewBox="0 0 274 41" fill="none" xmlns="http://www.w3.org/2000/svg">
<path d="M53.8907 12.5073C53.8907 6.10842 55.5077 1.15448 59.5501 1.15448C62.1776 1.15448 63.3904 3.21862 63.9967 5.28277L61.9755 6.10842C61.3692 4.45711 60.9649 3.42504 59.5501 3.42504C57.3268 3.42504 56.5183 7.34691 56.5183 12.5073C56.5183 17.6676 57.3268 21.5895 59.5501 21.5895C60.9649 21.5895 61.5713 20.1446 61.9755 18.2869L63.9967 19.1125C63.3904 21.3831 62.3798 23.86 59.5501 23.86C55.3056 23.6536 53.8907 18.6997 53.8907 12.5073Z" fill="#323D48"/>
<path d="M79.5601 23.2408V1.56729H84.2088C87.2406 1.56729 88.8575 3.83785 88.8575 7.14048C88.8575 9.82386 87.8469 11.4752 86.0279 12.0944C87.8469 12.5072 89.0597 14.7778 89.0597 17.4612C89.0597 20.9702 87.6448 23.2408 84.4109 23.2408H79.5601ZM86.4321 7.34689C86.4321 5.28275 85.8258 3.63143 83.8046 3.63143H81.9855V11.0623H83.8046C85.8258 11.0623 86.4321 9.41103 86.4321 7.34689ZM86.6342 17.2548C86.6342 15.1906 85.8258 13.3329 83.8046 13.3329H81.9855V21.1766H83.8046C85.8258 21.1766 86.6342 19.5253 86.6342 17.2548Z" fill="#323D48"/>
<path d="M104.622 12.5073C104.622 6.31484 106.037 1.15448 110.282 1.15448C114.324 1.15448 115.941 6.10842 115.941 12.5073C115.941 18.6997 114.324 23.86 110.282 23.86C106.239 23.6536 104.622 18.6997 104.622 12.5073ZM113.314 12.5073C113.314 7.55332 112.505 3.42504 110.282 3.42504C108.058 3.42504 107.25 7.55332 107.25 12.5073C107.25 17.4612 108.058 21.5895 110.282 21.5895C112.505 21.3831 113.314 17.2548 113.314 12.5073Z" fill="#323D48"/>
<path d="M131.909 23.2408V1.56729H134.334V16.8419L139.387 1.56729H141.813V23.2408H139.387V7.5533L134.132 23.2408H131.909Z" fill="#323D48"/>
<path d="M175.566 21.3831C177.183 21.3831 177.992 20.5574 178.396 13.3329L179.205 1.56729H186.885V23.2408H184.46V3.83785H181.428L180.822 13.5393C180.215 22.4151 178.396 23.6536 175.566 23.6536V21.3831Z" fill="#323D48"/>
<path d="M208.715 13.3329H206.087V23.4472H203.662V1.56731H206.087V11.0624H208.715C208.917 5.48918 210.534 1.15448 214.172 1.15448C218.214 1.15448 219.629 6.10842 219.629 12.5073C219.629 18.6997 218.214 23.86 214.172 23.86C210.332 23.6536 208.715 19.1125 208.715 13.3329ZM217.204 12.5073C217.204 7.55332 216.395 3.42504 214.172 3.42504C211.949 3.42504 211.14 7.55332 211.14 12.5073C211.14 17.4612 211.949 21.5895 214.172 21.5895C216.597 21.3831 217.204 17.2548 217.204 12.5073Z" fill="#323D48"/>
<path d="M234.384 21.3831C236.001 21.1767 236.81 20.5575 237.416 13.1266L238.022 1.77377H245.703V21.3831H247.522V27.5756H245.096V23.6537H236.607V27.5756H234.182V21.3831H234.384ZM237.82 21.1767H243.479V3.83792H240.448L239.841 13.333C239.639 17.4613 238.831 19.9382 237.82 21.1767Z" fill="#323D48"/>
<path d="M263.287 23.2408V1.56729H265.712V16.8419L270.765 1.56729H273.191V23.2408H270.765V7.5533L265.51 23.2408H263.287Z" fill="#323D48"/>
<path d="M0.809448 22.9669H4.6748V37.0867L11.5135 40.4269H0.809448V22.9669Z" fill="#323D48"/>
<path d="M17.163 23.5742C16.1224 22.9669 14.487 22.5114 12.8517 22.5114C11.0677 22.5114 10.1757 23.2706 10.1757 24.4852C10.1757 25.548 10.919 26.1553 13.0003 26.9144C15.825 27.9772 17.7577 29.4954 17.7577 32.0765C17.7577 35.113 15.379 37.3904 11.2163 37.3904C9.28365 37.3904 7.79698 36.9349 6.90497 36.4795L7.79698 33.2911C8.54031 33.5948 9.72966 34.0502 11.365 34.0502C13.0003 34.0502 13.8923 33.2911 13.8923 32.3801C13.8923 31.3174 12.8517 30.7101 10.7703 29.9509C7.79698 28.7363 6.3103 27.218 6.3103 24.7888C6.3103 21.9041 8.54032 19.3231 13.2977 19.3231C15.2304 19.3231 17.163 19.7785 18.2037 20.3858L17.163 23.5742Z" fill="#E21A55"/>
<path d="M22.6633 40.5788V36.6313H36.4894L39.7601 29.6473V40.5788H22.6633Z" fill="#323D48"/>
<path d="M23.2584 23.8779C22.6637 24.9407 22.2177 26.6108 22.2177 28.2809C22.2177 30.1028 22.961 31.0138 24.0017 31.0138C25.0424 31.0138 25.6371 30.2546 26.3804 28.1291C27.4211 25.2444 28.9077 23.2706 31.4351 23.2706C34.4084 23.2706 36.6385 25.6998 36.6385 29.951C36.6385 31.9247 36.1925 33.443 35.7465 34.3539L32.6244 33.443C32.9218 32.6839 33.3678 31.4692 33.3678 29.7992C33.3678 28.1291 32.6244 27.2181 31.7324 27.2181C30.6918 27.2181 30.0971 28.1291 29.3537 30.4065C28.1644 33.443 26.6777 34.9613 24.2991 34.9613C21.4744 34.9613 18.947 32.6839 18.947 27.8254C18.947 25.8517 19.393 23.8779 19.9877 22.8151L23.2584 23.8779Z" fill="#E21A55"/>
<path d="M39.7607 17.653H35.8953V3.53312L29.0566 0.192932H39.7607V17.653Z" fill="#323D48"/>
<path d="M23.4074 17.0457C24.448 17.653 26.0834 18.1085 27.7187 18.1085C29.5027 18.1085 30.3947 17.3494 30.3947 16.2866C30.5434 15.2238 29.6514 14.6165 27.5701 13.8574C24.7454 12.7946 22.8127 11.2763 22.8127 8.69525C22.8127 5.65872 25.1914 3.38132 29.3541 3.38132C31.2868 3.38132 32.7734 3.8368 33.6654 4.29228L32.7734 7.48064C32.0301 7.17698 30.8407 6.7215 29.2054 6.7215C27.5701 6.7215 26.6781 7.48064 26.6781 8.3916C26.6781 9.45438 27.7187 10.0617 29.8001 10.8208C32.7734 12.0354 34.2601 13.5537 34.2601 15.9829C34.2601 18.8676 32.0301 21.4487 27.2727 21.4487C25.34 21.4487 23.4074 20.9932 22.3667 20.3859L23.4074 17.0457Z" fill="#E21A55"/>
<path d="M17.9063 0.192932V4.14042H4.08026L0.80957 11.1244V0.192932H17.9063Z" fill="#323D48"/>
<path d="M17.3118 16.8939C17.9065 15.8311 18.3525 14.161 18.3525 12.4909C18.3525 10.669 17.6092 9.75801 16.5685 9.75801C15.5278 9.75801 14.9332 10.5171 14.1898 12.6427C13.1491 15.5274 11.6625 17.5012 9.13513 17.5012C6.16178 17.5012 3.93176 15.0719 3.93176 10.8208C3.93176 8.84705 4.37777 7.32878 4.82377 6.41782L7.94579 7.32878C7.64845 7.93609 7.05378 9.1507 7.05378 10.9726C7.05378 12.6427 7.79712 13.5537 8.68912 13.5537C9.7298 13.5537 10.3245 12.4909 11.0678 10.3653C12.2571 7.32878 13.7438 5.81052 16.1225 5.81052C18.9472 5.81052 21.4745 8.08792 21.4745 12.9464C21.4745 14.9201 21.0285 16.8939 20.4339 17.9566L17.3118 16.8939Z" fill="#E21A55"/>
<path d="M272.476 39.011V36.9117H271.449L270.029 39.011H269.276L270.798 36.7906C270.233 36.5564 269.715 36.0154 269.715 35.208C269.715 34.1906 270.374 33.3347 271.857 33.3347C272.225 33.3347 272.821 33.3589 273.143 33.3589V39.011H272.476ZM271.37 36.2657H272.476V34.0049C272.296 33.9968 271.966 33.9807 271.731 33.9807C270.876 33.9807 270.421 34.4974 270.421 35.1676C270.421 35.7651 270.892 36.185 271.37 36.2657Z" fill="#323D48"/>
<path d="M261.009 39.011H260.42V33.3589H261.087V37.8806L264.421 33.3589H265.009V39.011H264.342V34.4893L261.009 39.011Z" fill="#323D48"/>
<path d="M252.332 39.003V33.367C252.638 33.3589 253.328 33.3347 253.838 33.3347C255.148 33.3347 255.603 33.9484 255.603 34.7316C255.603 35.4421 255.187 35.862 254.662 36.0397V36.0558C255.344 36.1688 255.799 36.621 255.799 37.3962C255.799 38.5427 254.944 39.0353 253.807 39.0353C253.32 39.0353 252.654 39.0191 252.332 39.003ZM253.885 36.4353H252.999V38.357C253.179 38.3732 253.532 38.3893 253.846 38.3893C254.654 38.3893 255.132 38.0502 255.132 37.3558C255.132 36.7583 254.677 36.4353 253.885 36.4353ZM253.822 33.9807C253.532 33.9807 253.195 33.9968 252.999 34.0049V35.8297H253.877C254.458 35.8297 254.936 35.4987 254.936 34.885C254.936 34.2956 254.552 33.9807 253.822 33.9807Z" fill="#323D48"/>
<path d="M243.674 34.0049V33.3589H248.184V34.0049H246.263V39.011H245.596V34.0049H243.674Z" fill="#323D48"/>
<path d="M239.845 37.9452L240.111 38.4619C239.743 38.8495 239.06 39.0917 238.378 39.0917C236.731 39.0917 235.593 37.9452 235.593 36.1849C235.593 34.562 236.613 33.2781 238.331 33.2781C239.037 33.2781 239.609 33.48 240.002 33.8272L239.696 34.344C239.335 34.0694 238.911 33.9241 238.339 33.9241C237.146 33.9241 236.299 34.8446 236.299 36.1849C236.299 37.5334 237.17 38.4458 238.441 38.4458C238.966 38.4458 239.468 38.2601 239.845 37.9452Z" fill="#323D48"/>
<path d="M228.265 39.011V33.3589H231.363V34.0049H228.932V35.8297H231.128V36.4757H228.932V38.3651H231.442V39.011H228.265Z" fill="#323D48"/>
<path d="M217.212 39.011V33.3589H217.878V38.3651H219.957V33.3589H220.624V38.3651H222.702V33.3589H223.369V39.011H217.212Z" fill="#323D48"/>
<path d="M209.452 39.011V33.3589H212.55V34.0049H210.118V35.8297H212.315V36.4757H210.118V38.3651H212.629V39.011H209.452Z" fill="#323D48"/>
<path d="M200.794 34.0049V33.3589H205.305V34.0049H203.383V39.011H202.716V34.0049H200.794Z" fill="#323D48"/>
<path d="M197.35 33.3589L195.452 37.7191C195.075 38.5831 194.691 39.011 194.087 39.011C193.844 39.011 193.569 38.9303 193.42 38.8092L193.656 38.2278C193.805 38.3328 193.922 38.3731 194.079 38.3731C194.393 38.3731 194.605 38.1228 194.754 37.7999L194.848 37.5899L192.361 33.3589H193.114L195.17 36.9036L196.676 33.3589H197.35Z" fill="#323D48"/>
<path d="M187.508 39.011V34.0049H184.527V39.011H183.86V33.3589H188.174V39.011H187.508Z" fill="#323D48"/>
<path d="M171.091 39.011V33.3589H174.189V34.0049H171.758V35.8297H173.954V36.4757H171.758V38.3651H174.268V39.011H171.091Z" fill="#323D48"/>
<path d="M165.532 39.011V33.3589H166.199V39.011H165.532ZM162.567 36.0639C162.387 36.0639 162.159 36.08 161.885 36.1123V38.357C162.096 38.3651 162.292 38.3812 162.543 38.3812C163.446 38.3812 163.94 37.9775 163.94 37.1781C163.94 36.4595 163.453 36.0639 162.567 36.0639ZM161.885 33.3589V35.4583C162.183 35.434 162.434 35.4179 162.614 35.4179C163.995 35.4179 164.646 36.0962 164.646 37.162C164.646 38.3489 163.83 39.0272 162.465 39.0272C161.994 39.0272 161.539 39.011 161.218 39.011V33.3589H161.885Z" fill="#323D48"/>
<path d="M155.659 39.011V36.4514H152.639V39.011H151.972V33.3589H152.639V35.8055H155.659V33.3589H156.326V39.011H155.659Z" fill="#323D48"/>
<path d="M145.394 36.0639C145.214 36.0639 144.947 36.08 144.672 36.1123V38.357C144.884 38.3651 145.119 38.3812 145.37 38.3812C146.273 38.3812 146.806 37.9936 146.806 37.1781C146.806 36.4434 146.28 36.0639 145.394 36.0639ZM144.672 33.3589V35.4583C144.97 35.434 145.261 35.4179 145.441 35.4179C146.861 35.4179 147.512 36.0962 147.512 37.162C147.512 38.3489 146.696 39.0272 145.292 39.0272C144.821 39.0272 144.327 39.011 144.006 39.011V33.3589H144.672Z" fill="#323D48"/>
<path d="M138.448 39.011V34.0049H136.456L136.362 35.0707C136.04 38.6638 135.303 39.1241 134.44 39.011L134.448 38.3247C134.84 38.3651 135.499 38.1632 135.75 34.4893L135.828 33.3589H139.115V39.011H138.448Z" fill="#323D48"/>
<path d="M125.675 39.011L128.036 33.3266H128.608L130.969 39.011H130.256L129.55 37.2992H127.047L126.349 39.011H125.675ZM128.302 34.239L127.314 36.6532H129.291L128.302 34.239Z" fill="#323D48"/>
<path d="M122.744 33.3589L120.845 37.7191C120.469 38.5831 120.084 39.011 119.48 39.011C119.237 39.011 118.963 38.9303 118.814 38.8092L119.049 38.2278C119.198 38.3328 119.316 38.3731 119.473 38.3731C119.786 38.3731 119.998 38.1228 120.147 37.7999L120.241 37.5899L117.755 33.3589H118.508L120.563 36.9036L122.069 33.3589H122.744Z" fill="#323D48"/>
<path d="M108.915 40.0607V38.3651H109.503C109.731 38.0744 110.288 36.8552 110.405 34.4893L110.46 33.3589H113.692V38.3651H114.437V40.0607H113.81V39.011H109.543V40.0607H108.915ZM111.033 35.0142C110.9 36.9601 110.445 38.1067 110.241 38.3651H113.025V34.0049H111.104L111.033 35.0142Z" fill="#323D48"/>
<path d="M100.726 39.011H100.138V33.3589H100.805V37.8806L104.139 33.3589H104.727V39.011H104.06V34.4893L100.726 39.011Z" fill="#323D48"/>
<path d="M92.0493 39.003V33.367C92.3552 33.3589 93.0455 33.3347 93.5554 33.3347C94.8654 33.3347 95.3203 33.9484 95.3203 34.7316C95.3203 35.4421 94.9046 35.862 94.379 36.0397V36.0558C95.0615 36.1688 95.5164 36.621 95.5164 37.3962C95.5164 38.5427 94.6614 39.0353 93.524 39.0353C93.0377 39.0353 92.3709 39.0191 92.0493 39.003ZM93.6025 36.4353H92.7161V38.357C92.8965 38.3732 93.2495 38.3893 93.5632 38.3893C94.3712 38.3893 94.8497 38.0502 94.8497 37.3558C94.8497 36.7583 94.3947 36.4353 93.6025 36.4353ZM93.5397 33.9807C93.2495 33.9807 92.9122 33.9968 92.7161 34.0049V35.8297H93.5946C94.1751 35.8297 94.6536 35.4987 94.6536 34.885C94.6536 34.2956 94.2692 33.9807 93.5397 33.9807Z" fill="#323D48"/>
<path d="M83.1547 39.011H82.5664V33.3589H83.2332V37.8806L86.5669 33.3589H87.1552V39.011H86.4885V34.4893L83.1547 39.011Z" fill="#323D48"/>
<path d="M72.7371 40.0607V38.3651H73.3254C73.5529 38.0744 74.1098 36.8552 74.2274 34.4893L74.2824 33.3589H77.5142V38.3651H78.2593V40.0607H77.6318V39.011H73.3646V40.0607H72.7371ZM74.855 35.0142C74.7216 36.9601 74.2667 38.1067 74.0627 38.3651H76.8474V34.0049H74.9256L74.855 35.0142Z" fill="#323D48"/>
<path d="M67.8845 39.011V36.4514H64.8645V39.011H64.1978V33.3589H64.8645V35.8055H67.8845V33.3589H68.5513V39.011H67.8845Z" fill="#323D48"/>
<path d="M55.3032 39.011H54.7148V33.3589H55.3816V37.8806L58.7154 33.3589H59.3037V39.011H58.6369V34.4893L55.3032 39.011Z" fill="#323D48"/>
</svg>
