<svg width="227" height="41" viewBox="0 0 227 41" fill="none" xmlns="http://www.w3.org/2000/svg">
<path d="M56.1775 29.9022V31.7518C56.1775 32.5225 56.1775 32.9849 56.1775 33.6014C56.3323 33.139 56.6418 32.6766 56.9512 32.0601L58.3439 29.748H58.9628V34.218H58.3439V32.3683C58.3439 31.5977 58.3439 31.1353 58.3439 30.5187C58.1891 30.9811 57.8797 31.5977 57.5702 32.0601L56.1775 34.218H55.5586V29.748H56.1775V29.9022Z" fill="white"/>
<path d="M63.2947 29.9023V31.752H65.4611V29.9023H66.08V34.3723H65.4611V32.2144H63.2947V34.3723H62.6758V29.9023H63.2947Z" fill="white"/>
<path d="M72.8901 29.9023V33.9099H73.3543V35.4512H72.8901V34.3723H70.1048V35.4512H69.6406V33.9099H69.9501C70.1048 33.6016 70.2596 33.2933 70.4143 32.9851C70.5691 32.5226 70.569 31.9061 70.569 31.1354V30.0565H72.8901V29.9023ZM70.8785 31.1354C70.8785 31.9061 70.8785 32.5226 70.7238 32.9851C70.5691 33.2933 70.4143 33.6016 70.4143 33.7557H72.4259V30.2106H71.0333V31.1354H70.8785Z" fill="white"/>
<path d="M77.2225 29.9022V31.7518C77.2225 32.5225 77.2225 32.9849 77.2225 33.6014C77.3772 33.139 77.6867 32.6766 77.9962 32.0601L79.3888 29.748H80.0077V34.218H79.3888V32.3683C79.3888 31.5977 79.3888 31.1353 79.3888 30.5187C79.2341 30.9811 78.9246 31.5977 78.6151 32.0601L77.2225 34.218H76.6035V29.748H77.2225V29.9022Z" fill="white"/>
<path d="M83.7207 29.9022C84.0302 29.9022 84.3397 29.748 84.8039 29.748C85.4228 29.748 85.7323 29.9022 86.0418 30.0563C86.3512 30.2105 86.3512 30.5187 86.3512 30.827C86.3512 31.2894 86.0418 31.5977 85.5776 31.7518C86.0418 31.9059 86.506 32.2142 86.506 32.8308C86.506 33.139 86.3512 33.4473 86.1965 33.7556C85.887 34.0638 85.4228 34.218 84.6491 34.218C84.1849 34.218 83.8754 34.218 83.7207 34.218V29.9022ZM84.3397 31.7518H84.8039C85.4228 31.7518 85.7323 31.4435 85.7323 30.9811C85.7323 30.5187 85.2681 30.2105 84.8039 30.2105C84.4944 30.2105 84.3397 30.2105 84.3397 30.2105V31.7518ZM84.3397 33.9097C84.4944 33.9097 84.6491 33.9097 84.8039 33.9097C85.4228 33.9097 85.887 33.7556 85.887 32.9849C85.887 32.3683 85.4228 32.0601 84.8039 32.0601H84.3397V33.9097Z" fill="white"/>
<path d="M90.6834 29.9022V31.7518C90.6834 32.5225 90.6834 32.9849 90.6834 33.6014C90.8381 33.139 91.1476 32.6766 91.4571 32.0601L92.8497 29.748H93.4687V34.218H92.8497V32.3683C92.8497 31.5977 92.8497 31.1353 92.8497 30.5187C92.695 30.9811 92.3855 31.5977 92.076 32.0601L90.6834 34.218H90.0645V29.748H90.6834V29.9022Z" fill="white"/>
<path d="M100.278 29.9023V33.9099H100.742V35.4512H100.278V34.3723H97.4924V35.4512H96.7188V33.9099H97.0282C97.183 33.6016 97.3377 33.2933 97.4924 32.9851C97.6472 32.5226 97.6472 31.9061 97.6472 31.1354V30.0565H100.278V29.9023ZM98.2661 31.1354C98.2661 31.9061 98.2661 32.5226 98.1114 32.9851C97.9567 33.2933 97.8019 33.6016 97.8019 33.7557H99.8135V30.2106H98.2661V31.1354Z" fill="white"/>
<path d="M104.147 29.9023L105.075 31.752C105.23 32.0602 105.23 32.2144 105.385 32.5226C105.539 32.3685 105.539 32.0602 105.694 31.752L106.468 29.9023H107.087L106.004 32.2144C105.694 32.8309 105.539 33.4475 105.23 33.9099C104.92 34.2181 104.611 34.5264 104.147 34.5264C103.992 34.5264 103.837 34.5264 103.837 34.5264V34.064H103.992C104.456 34.064 104.766 33.6016 104.92 33.2933C104.92 33.1392 104.92 33.1392 104.92 32.9851L103.373 30.0565H104.147V29.9023Z" fill="white"/>
<path d="M110.491 32.9851L110.027 34.3723H109.408L110.956 29.9023H111.729L113.277 34.3723H112.658L112.193 32.9851H110.491ZM112.039 32.5226L111.575 31.2896C111.42 30.9813 111.42 30.673 111.265 30.5189C111.265 30.8272 111.11 30.9813 111.11 31.2896L110.646 32.5226H112.039Z" fill="white"/>
<path d="M119.775 29.9022V34.3721H119.156V30.3646H117.609V31.7518C117.609 32.6766 117.609 33.7556 116.99 34.218C116.835 34.3721 116.526 34.3721 116.371 34.3721V33.9097C116.526 33.9097 116.681 33.7556 116.835 33.6014C117.145 33.2932 117.3 32.3683 117.3 31.5977V29.748H119.775V29.9022Z" fill="white"/>
<path d="M124.107 29.9023V31.5978C124.262 31.5978 124.571 31.5978 124.726 31.5978C125.654 31.5978 126.428 32.0602 126.428 32.9851C126.428 33.4475 126.273 33.7557 126.118 33.9099C125.809 34.2181 125.19 34.3723 124.571 34.3723C124.107 34.3723 123.797 34.3723 123.643 34.3723V29.9023H124.107ZM124.107 33.9099C124.262 33.9099 124.416 33.9099 124.571 33.9099C125.19 33.9099 125.809 33.6016 125.809 32.9851C125.809 32.2144 125.19 32.0602 124.571 32.0602C124.416 32.0602 124.262 32.0602 124.107 32.0602V33.9099Z" fill="white"/>
<path d="M130.451 29.9023V31.752H132.617V29.9023H133.236V34.3723H132.617V32.2144H130.451V34.3723H129.832V29.9023H130.451Z" fill="white"/>
<path d="M137.414 29.9023V31.5978C137.569 31.5978 137.723 31.5978 137.878 31.5978C138.807 31.5978 139.58 32.0602 139.58 32.9851C139.58 33.4475 139.425 33.7557 139.271 33.9099C138.961 34.2181 138.342 34.3723 137.723 34.3723C137.259 34.3723 136.95 34.3723 136.795 34.3723V29.9023H137.414ZM137.414 33.9099C137.569 33.9099 137.723 33.9099 137.878 33.9099C138.497 33.9099 139.116 33.6016 139.116 32.9851C139.116 32.2144 138.497 32.0602 137.878 32.0602C137.723 32.0602 137.569 32.0602 137.414 32.0602V33.9099ZM140.818 29.9023V34.3723H140.199V29.9023H140.818Z" fill="white"/>
<path d="M146.854 32.2142H145.152V33.7556H147.163V34.218H144.688V29.748H147.163V30.2105H145.306V31.5977H147.009V32.2142H146.854Z" fill="white"/>
<path d="M157.839 29.9023V34.3723H157.22V30.3648H155.209V34.3723H154.59V29.9023H157.839Z" fill="white"/>
<path d="M161.709 29.9023L162.637 31.752C162.792 32.0602 162.792 32.2144 162.947 32.5226C163.101 32.3685 163.101 32.0602 163.256 31.752L164.03 29.9023H164.649L163.72 32.2144C163.411 32.8309 163.256 33.4475 162.947 33.9099C162.637 34.2181 162.328 34.5264 161.864 34.5264C161.709 34.5264 161.554 34.5264 161.554 34.5264V34.064H161.709C162.173 34.064 162.482 33.6016 162.637 33.2933C162.637 33.1392 162.637 33.1392 162.637 32.9851L161.09 30.0565H161.709V29.9023Z" fill="white"/>
<path d="M168.826 30.3648H167.434V29.9023H170.683V30.3648H169.445V34.3723H168.826V30.3648Z" fill="white"/>
<path d="M176.409 32.2142H174.707V33.7556H176.718V34.218H174.088V29.748H176.564V30.2105H174.707V31.5977H176.409V32.2142Z" fill="white"/>
<path d="M180.586 29.9023V33.9099H181.978V29.9023H182.597V33.9099H183.99V29.9023H184.609V34.3723H179.967V29.9023H180.586Z" fill="white"/>
<path d="M190.645 32.2142H188.943V33.7556H190.954V34.218H188.479V29.748H190.954V30.2105H189.097V31.5977H190.8V32.2142H190.645Z" fill="white"/>
<path d="M197.453 34.218C197.298 34.3721 196.834 34.3721 196.215 34.3721C194.977 34.3721 194.049 33.6014 194.049 32.0601C194.049 30.6729 194.977 29.748 196.37 29.748C196.989 29.748 197.298 29.9022 197.453 29.9022L197.298 30.3646C197.144 30.2105 196.834 30.2105 196.37 30.2105C195.287 30.2105 194.668 30.827 194.668 32.0601C194.668 33.139 195.287 33.9097 196.37 33.9097C196.679 33.9097 197.144 33.9097 197.298 33.7556L197.453 34.218Z" fill="white"/>
<path d="M201.94 30.3648H200.547V29.9023H203.796V30.3648H202.404V34.3723H201.94V30.3648Z" fill="white"/>
<path d="M207.047 29.9022C207.356 29.9022 207.666 29.748 208.13 29.748C208.749 29.748 209.058 29.9022 209.368 30.0563C209.523 30.2105 209.677 30.5187 209.677 30.827C209.677 31.2894 209.368 31.5977 208.904 31.7518C209.368 31.9059 209.832 32.2142 209.832 32.8308C209.832 33.139 209.677 33.4473 209.523 33.7556C209.213 34.0638 208.749 34.218 207.975 34.218C207.511 34.218 207.202 34.218 207.047 34.218V29.9022ZM207.666 31.7518H208.13C208.749 31.7518 209.058 31.4435 209.058 30.9811C209.058 30.5187 208.594 30.2105 208.13 30.2105C207.821 30.2105 207.666 30.2105 207.666 30.2105V31.7518ZM207.666 33.9097C207.821 33.9097 207.975 33.9097 208.13 33.9097C208.749 33.9097 209.213 33.7556 209.213 32.9849C209.213 32.3683 208.749 32.0601 208.13 32.0601H207.666V33.9097Z" fill="white"/>
<path d="M214.01 29.9022V31.7518C214.01 32.5225 214.01 32.9849 214.01 33.6014C214.164 33.139 214.474 32.6766 214.783 32.0601L216.176 29.748H216.795V34.218H216.176V32.3683C216.176 31.5977 216.176 31.1353 216.176 30.5187C216.021 30.9811 215.712 31.5977 215.402 32.0601L214.01 34.218H213.391V29.748H214.01V29.9022Z" fill="white"/>
<path d="M220.045 34.3723C220.045 34.2181 220.2 34.064 220.2 33.9099C220.354 33.4475 220.509 32.8309 220.819 32.3685C220.973 32.2144 221.128 32.2144 221.128 32.2144C220.509 32.0602 220.2 31.752 220.2 31.1354C220.2 30.673 220.354 30.3648 220.664 30.2106C220.973 30.0565 221.438 29.9023 221.902 29.9023C222.211 29.9023 222.675 29.9023 222.985 30.0565V34.5264H222.366V32.3685H222.057C221.747 32.3685 221.592 32.3685 221.438 32.5226C221.128 32.8309 220.973 33.4475 220.819 33.9099C220.819 34.064 220.664 34.064 220.664 34.2181H220.045V34.3723ZM222.521 30.3648C222.366 30.3648 222.211 30.3648 221.902 30.3648C221.283 30.3648 220.819 30.5189 220.819 31.1354C220.819 31.5978 221.283 31.9061 221.902 31.9061C222.057 31.9061 222.211 31.9061 222.366 31.9061V30.3648H222.521Z" fill="white"/>
<path d="M55.248 13.2548C55.248 8.47659 56.4859 4.77734 59.5807 4.77734C61.5923 4.77734 62.5207 6.3187 62.9849 7.86005L61.4375 8.47659C60.9733 7.24351 60.6639 6.47283 59.5807 6.47283C57.8786 6.47283 57.2596 9.4014 57.2596 13.2548C57.2596 17.1082 57.8786 20.0367 59.5807 20.0367C60.6639 20.0367 61.1281 18.9578 61.4375 17.5706L62.9849 18.1871C62.5207 19.8826 61.747 21.7322 59.5807 21.7322C56.3312 21.5781 55.248 17.8788 55.248 13.2548Z" fill="white"/>
<path d="M74.9004 21.2701V5.08594H78.4594C80.7804 5.08594 82.0183 6.78143 82.0183 9.24759C82.0183 11.2514 81.2446 12.4844 79.852 12.9468C81.2446 13.2551 82.1731 14.9506 82.1731 16.9544C82.1731 19.5747 81.0899 21.2701 78.6141 21.2701H74.9004ZM80.1615 9.40173C80.1615 7.86037 79.6973 6.62729 78.1499 6.62729H76.7572V12.1762H78.1499C79.6973 12.1762 80.1615 10.9431 80.1615 9.40173ZM80.3162 16.8002C80.3162 15.2589 79.6973 13.8717 78.1499 13.8717H76.7572V19.7288H78.1499C79.6973 19.7288 80.3162 18.4957 80.3162 16.8002Z" fill="white"/>
<path d="M94.0879 13.2548C94.0879 8.63073 95.1711 4.77734 98.4205 4.77734C101.515 4.77734 102.753 8.47659 102.753 13.2548C102.753 17.8788 101.515 21.7322 98.4205 21.7322C95.3258 21.5781 94.0879 17.8788 94.0879 13.2548ZM100.742 13.2548C100.742 9.55554 100.123 6.47283 98.4205 6.47283C96.7184 6.47283 96.0995 9.55554 96.0995 13.2548C96.0995 16.954 96.7184 20.0367 98.4205 20.0367C100.123 19.8826 100.742 16.7999 100.742 13.2548Z" fill="white"/>
<path d="M114.977 21.2701V5.08594H116.833V16.492L120.702 5.08594H122.559V21.2701H120.702V9.55586L116.679 21.2701H114.977Z" fill="white"/>
<path d="M148.4 19.8829C149.638 19.8829 150.257 19.2664 150.567 13.8717L151.186 5.08594H157.066V21.2701H155.209V6.78143H152.888L152.424 14.0258C151.959 20.6536 150.567 21.5784 148.4 21.5784V19.8829Z" fill="white"/>
<path d="M173.777 13.8713H171.765V21.424H169.908V5.08561H171.765V12.1758H173.777C173.931 8.01419 175.169 4.77734 177.955 4.77734C181.049 4.77734 182.132 8.47659 182.132 13.2548C182.132 17.8788 181.049 21.7322 177.955 21.7322C175.015 21.5781 173.777 18.1871 173.777 13.8713ZM180.276 13.2548C180.276 9.55554 179.657 6.47283 177.955 6.47283C176.252 6.47283 175.633 9.55554 175.633 13.2548C175.633 16.954 176.252 20.0367 177.955 20.0367C179.811 19.8826 180.276 16.7999 180.276 13.2548Z" fill="white"/>
<path d="M193.428 19.8831C194.666 19.729 195.285 19.2666 195.749 13.7177L196.213 5.24023H202.093V19.8831H203.486V24.5072H201.629V21.5786H195.13V24.5072H193.273V19.8831H193.428ZM196.059 19.729H200.391V6.78159H198.07L197.606 13.8718C197.451 16.9545 196.832 18.8041 196.059 19.729Z" fill="white"/>
<path d="M215.557 21.2701V5.08594H217.413V16.492L221.282 5.08594H223.139V21.2701H221.282V9.55586L217.259 21.2701H215.557Z" fill="white"/>
<path d="M0 23.1211H4.02318V37.4557L11.1411 40.8467H0V23.1211Z" fill="white"/>
<path d="M17.0205 23.7377C15.9373 23.1211 14.2352 22.6587 12.5331 22.6587C10.6762 22.6587 9.74779 23.4294 9.74779 24.6625C9.74779 25.7414 10.5215 26.358 12.6878 27.1286C15.6278 28.2076 17.6394 29.7489 17.6394 32.3692C17.6394 35.452 15.1636 37.764 10.8309 37.764C8.81936 37.764 7.27198 37.3016 6.34356 36.8392L7.27198 33.6023C8.04567 33.9106 9.28357 34.373 10.9857 34.373C12.6878 34.373 13.6162 33.6023 13.6162 32.6775C13.6162 31.5986 12.5331 30.982 10.3667 30.2113C7.27198 28.9783 5.72461 27.4369 5.72461 24.9707C5.72461 22.0422 8.04567 19.4219 12.9973 19.4219C15.0089 19.4219 17.0205 19.8843 18.1036 20.5008L17.0205 23.7377Z" fill="#E21A55"/>
<path d="M22.748 41.0001V36.9926H37.1386L40.5429 29.9023V41.0001H22.748Z" fill="white"/>
<path d="M23.3663 24.0457C22.7473 25.1247 22.2831 26.8202 22.2831 28.5157C22.2831 30.3653 23.0568 31.2901 24.14 31.2901C25.2231 31.2901 25.8421 30.5194 26.6158 28.3615C27.6989 25.433 29.2463 23.4292 31.8769 23.4292C34.9716 23.4292 37.2927 25.8954 37.2927 30.2112C37.2927 32.2149 36.8285 33.7563 36.3643 34.6811L33.1148 33.7563C33.4242 32.9856 33.8884 31.7525 33.8884 30.057C33.8884 28.3615 33.1148 27.4367 32.1863 27.4367C31.1032 27.4367 30.4842 28.3615 29.7105 30.6736C28.4726 33.7563 26.9253 35.2976 24.4495 35.2976C21.5094 35.2976 18.8789 32.9856 18.8789 28.0533C18.8789 26.0495 19.3431 24.0457 19.9621 22.9668L23.3663 24.0457Z" fill="#E21A55"/>
<path d="M40.5415 17.7256H36.5183V3.39098L29.4004 0H40.5415V17.7256Z" fill="white"/>
<path d="M23.5207 17.1085C24.6038 17.7251 26.3059 18.1875 28.0081 18.1875C29.8649 18.1875 30.7933 17.4168 30.7933 16.3378C30.9481 15.2589 30.0196 14.6423 27.8533 13.8717C24.9133 12.7927 22.9017 11.2514 22.9017 8.63107C22.9017 5.54836 25.3775 3.23633 29.7102 3.23633C31.7218 3.23633 33.2691 3.69873 34.1976 4.16114L33.2691 7.39798C32.4954 7.08971 31.2575 6.62731 29.5554 6.62731C27.8533 6.62731 26.9249 7.39798 26.9249 8.32279C26.9249 9.40174 28.0081 10.0183 30.1744 10.789C33.2691 12.022 34.8165 13.5634 34.8165 16.0296C34.8165 18.9581 32.4954 21.5784 27.5438 21.5784C25.5322 21.5784 23.5207 21.116 22.4375 20.4995L23.5207 17.1085Z" fill="#E21A55"/>
<path d="M17.7948 0V4.00752H3.40423L0 11.0977V0H17.7948Z" fill="white"/>
<path d="M17.1764 16.955C17.7953 15.8761 18.2595 14.1806 18.2595 12.4851C18.2595 10.6355 17.4859 9.71064 16.4027 9.71064C15.3195 9.71064 14.7006 10.4813 13.9269 12.6392C12.8437 15.5678 11.2964 17.5715 8.66581 17.5715C5.57106 17.5715 3.25 15.1054 3.25 10.7896C3.25 8.78583 3.71421 7.24448 4.17843 6.31967L7.42791 7.24448C7.11844 7.86102 6.49949 9.0941 6.49949 10.9437C6.49949 12.6392 7.27318 13.564 8.2016 13.564C9.28477 13.564 9.90372 12.4851 10.6774 10.3272C11.9153 7.24448 13.4627 5.70312 15.9385 5.70312C18.8785 5.70312 21.509 8.01515 21.509 12.9475C21.509 14.9512 21.0448 16.955 20.4259 18.034L17.1764 16.955Z" fill="#E21A55"/>
</svg>
