<svg width="22" height="22" viewBox="0 0 22 22" fill="none" xmlns="http://www.w3.org/2000/svg">
<path d="M21.8249 11.1916L21.8744 11.1422L21.9098 11.1068L21.9451 11.0714L21.9381 10.9937C21.9254 10.9737 21.9085 10.9568 21.8886 10.9442L18.1904 7.24599C18.106 7.1616 17.9915 7.11419 17.8722 7.11419C17.7528 7.11419 17.6384 7.1616 17.554 7.24599C17.4696 7.33039 17.4222 7.44484 17.4222 7.56419C17.4222 7.68354 17.4696 7.798 17.554 7.88239L20.2693 10.5977L0.639998 10.4987C0.519975 10.4987 0.404867 10.5464 0.319998 10.6312C0.235129 10.7161 0.18745 10.8312 0.18745 10.9512C0.18745 11.0713 0.235129 11.1864 0.319998 11.2712C0.404867 11.3561 0.519975 11.4038 0.639998 11.4038L20.3966 11.3614L17.6388 14.1191C17.5575 14.2041 17.5127 14.3175 17.5141 14.4352C17.5154 14.5528 17.5627 14.6652 17.6459 14.7484C17.6851 14.7937 17.7341 14.8294 17.7893 14.8527C17.8445 14.876 17.9043 14.8863 17.9641 14.8827C18.0806 14.8832 18.1925 14.8374 18.2752 14.7555L21.8108 11.2199L21.8249 11.1916Z" fill="#323D48"/>
</svg>
