<svg width="16" height="16" viewBox="0 0 16 16" fill="none" xmlns="http://www.w3.org/2000/svg">
<path d="M14.2123 11.5855C13.6709 11.0401 12.3598 10.2441 11.7236 9.92331C10.8952 9.50605 10.827 9.47196 10.1758 9.95569C9.74152 10.2785 9.45276 10.5669 8.94446 10.4585C8.43615 10.3501 7.33158 9.73888 6.36439 8.77483C5.39721 7.81078 4.75049 6.67424 4.64174 6.16767C4.53298 5.6611 4.82617 5.37577 5.14595 4.94045C5.59665 4.32684 5.56255 4.22457 5.17732 3.3962C4.87697 2.75191 4.05775 1.4531 3.51023 0.914489C2.92454 0.335991 2.92454 0.43826 2.54714 0.595071C2.2399 0.724334 1.94513 0.881461 1.66655 1.06448C1.12108 1.42685 0.818348 1.72786 0.606638 2.18023C0.394929 2.6326 0.299813 3.69312 1.39313 5.67917C2.48646 7.66522 3.25352 8.68075 4.84117 10.2639C6.42883 11.847 7.64965 12.6982 9.43435 13.6991C11.6421 14.9355 12.489 14.6945 12.9427 14.4831C13.3965 14.2718 13.6989 13.9718 14.062 13.4263C14.2455 13.1482 14.403 12.8538 14.5324 12.5468C14.6896 12.1708 14.7919 12.1708 14.2123 11.5855Z" stroke="#E21A55" stroke-width="0.945455" stroke-miterlimit="10"/>
</svg>
