<svg width="69" height="70" viewBox="0 0 69 70" fill="none" xmlns="http://www.w3.org/2000/svg">
<path fill-rule="evenodd" clip-rule="evenodd" d="M68.8903 30.2634H62.0538V5.78951L49.9585 0L68.8903 0V30.2634ZM21.3017 38.685C24.1941 38.685 27.0864 39.4745 28.927 40.5272L30.7676 35.0008C28.927 33.9482 25.5088 33.1587 22.0905 33.1587C13.6764 33.1587 9.73222 37.6324 9.73222 42.6324C9.73222 46.843 12.3617 49.4746 17.6205 51.5799C21.3017 52.8957 23.1423 53.9483 23.1423 55.7904C23.1423 57.3694 21.5646 58.6852 18.6723 58.6852C15.7799 58.6852 13.6764 57.8957 12.3617 57.3694L10.784 62.8957C12.3617 63.6852 14.9911 64.4747 18.4093 64.4747C25.7717 64.4747 29.9788 60.5273 29.9788 55.2641C29.9788 50.7904 26.5606 48.1588 21.5646 46.3167C17.8834 45.0009 16.5687 43.9482 16.5687 42.1061C16.5687 40.0008 18.1464 38.685 21.3017 38.685ZM6.83651 39.4753H0L0 69.7386H18.9319L6.83651 63.9491L6.83651 39.4753ZM38.6537 70.0001L38.6537 63.158H63.1074L68.8921 51.0526V70.0001H38.6537ZM37.865 48.6841C37.865 45.7893 38.6539 42.8946 39.7056 41.0524L33.9209 39.2103C32.8691 41.0524 32.0803 44.4735 32.0803 47.8946C32.0803 56.3157 36.5503 60.2631 41.5462 60.2631C45.7533 60.2631 48.3828 57.6315 50.4863 52.3683C51.801 48.4209 52.8528 46.842 54.6934 46.842C56.271 46.842 57.5857 48.4209 57.5857 51.3157C57.5857 54.2104 56.7969 56.3157 56.271 57.6315L61.7928 59.2105C62.5817 57.6315 63.3705 54.9999 63.3705 51.5788C63.3705 44.2104 59.4263 39.9998 54.1675 39.9998C49.6975 39.9998 47.068 43.4209 45.2274 48.4209C43.9127 52.1051 42.861 53.4209 41.0203 53.4209C39.1797 53.4209 37.865 51.842 37.865 48.6841ZM47.5923 31.0522C44.6999 31.0522 41.8076 30.2627 39.967 29.2101L38.1264 34.9996C39.967 36.0522 43.3852 36.8417 46.8035 36.8417C55.2176 36.8417 59.1618 32.368 59.1618 27.3679C59.1618 23.1574 56.5324 20.5258 51.2735 18.4205C47.5923 17.1047 45.7517 16.0521 45.7517 14.21C45.7517 12.631 47.3294 11.3152 50.2217 11.3152C53.1141 11.3152 55.2176 12.1047 56.5324 12.631L58.11 7.10465C56.5324 6.31517 53.9029 5.5257 50.4847 5.5257C43.1223 5.5257 38.9152 9.47309 38.9152 14.7363C38.9152 19.21 42.3334 21.8416 47.3294 23.6837C51.0106 24.9995 52.5882 26.0521 52.3253 27.8943C52.3253 29.7364 50.7476 31.0522 47.5923 31.0522ZM30.2384 0V6.84215L5.78474 6.84215L0 18.9475L0 0L30.2384 0ZM31.0268 21.3163C31.0268 24.2111 30.238 27.1058 29.1862 28.948L34.708 30.7901C35.7598 28.948 36.5486 25.5269 36.5486 22.1058C36.5486 13.6847 32.0786 9.7373 27.0827 9.7373C22.8756 9.7373 20.2462 12.3689 18.1426 17.6321C16.8279 21.3163 15.7762 23.1584 13.9356 23.1584C12.3579 23.1584 11.0432 21.5795 11.0432 18.6847C11.0432 15.5268 12.095 13.4215 12.6208 12.3689L7.09905 10.7899C6.31022 12.3689 5.52139 15.0005 5.52139 18.4216C5.52139 25.79 9.46554 30.0006 14.7244 30.0006C19.1944 30.0006 21.8238 26.5795 23.6644 21.5795C24.9792 17.8953 26.0309 16.5795 27.8715 16.5795C29.7121 16.5795 31.0268 18.1584 31.0268 21.3163Z" fill="#EEECE0"/>
</svg>
