<svg width="22" height="22" viewBox="0 0 22 22" fill="none" xmlns="http://www.w3.org/2000/svg">
<path d="M0.165317 10.7991L0.115818 10.8486L0.0804633 10.884L0.0451085 10.9193L0.0521784 10.9971C0.0648217 11.0171 0.081725 11.034 0.101676 11.0466L3.79984 14.7448C3.88423 14.8292 3.99869 14.8766 4.11804 14.8766C4.23739 14.8766 4.35185 14.8292 4.43624 14.7448C4.52063 14.6604 4.56804 14.5459 4.56804 14.4266C4.56804 14.3072 4.52063 14.1928 4.43624 14.1084L1.72095 11.3931L21.3502 11.4921C21.4703 11.4921 21.5854 11.4444 21.6702 11.3596C21.7551 11.2747 21.8028 11.1596 21.8028 11.0396C21.8028 10.9195 21.7551 10.8044 21.6702 10.7196C21.5854 10.6347 21.4703 10.587 21.3502 10.587L1.59367 10.6294L4.35139 7.87171C4.4327 7.7867 4.47749 7.67323 4.47617 7.55561C4.47485 7.43798 4.42752 7.32555 4.34432 7.24239C4.30516 7.19706 4.25608 7.16136 4.2009 7.13806C4.14572 7.11477 4.08591 7.10449 4.02612 7.10804C3.90965 7.10761 3.79777 7.15338 3.71499 7.23532L0.179458 10.7708L0.165317 10.7991Z" fill="#323D48"/>
</svg>
