<svg width="16" height="16" viewBox="0 0 16 16" fill="none" xmlns="http://www.w3.org/2000/svg">
<g clip-path="url(#clip0_7867_31794)">
<path d="M7.68164 0.59082C11.5978 0.59082 14.7724 3.76552 14.7725 7.68164C14.7725 11.5978 11.5978 14.7725 7.68164 14.7725C3.76552 14.7724 0.59082 11.5978 0.59082 7.68164C0.590916 3.76558 3.76558 0.590916 7.68164 0.59082Z" fill="white" stroke="#24A1DE" stroke-width="1.18182"/>
<path fill-rule="evenodd" clip-rule="evenodd" d="M3.47731 7.60072C5.71671 6.62505 7.21 5.98183 7.95717 5.67105C10.0905 4.78373 10.5338 4.62959 10.8227 4.6245C10.8863 4.62339 11.0283 4.63913 11.1204 4.71382C11.1981 4.77688 11.2195 4.86206 11.2297 4.92185C11.2399 4.98164 11.2527 5.11784 11.2426 5.22426C11.1269 6.43893 10.6267 9.38663 10.3722 10.7471C10.2646 11.3227 10.0525 11.5158 9.84726 11.5347C9.40116 11.5757 9.06242 11.2398 8.63035 10.9566C7.95425 10.5134 7.5723 10.2375 6.91602 9.80506C6.15759 9.30526 6.64925 9.03057 7.08148 8.58163C7.1946 8.46415 9.16011 6.67636 9.19816 6.51418C9.20291 6.4939 9.20733 6.41829 9.16241 6.37837C9.1175 6.33844 9.0512 6.3521 9.00336 6.36295C8.93555 6.37834 7.85547 7.09224 5.76313 8.50463C5.45655 8.71515 5.17886 8.81772 4.93007 8.81234C4.65578 8.80642 4.12818 8.65726 3.73596 8.52976C3.25488 8.37339 2.87254 8.29071 2.90583 8.02513C2.92317 7.8868 3.11366 7.74533 3.47731 7.60072Z" fill="#24A1DE"/>
</g>
<defs>
<clipPath id="clip0_7867_31794">
<rect width="15.3636" height="15.3636" fill="white"/>
</clipPath>
</defs>
</svg>
