<svg width="13" height="13" viewBox="0 0 13 13" fill="none" xmlns="http://www.w3.org/2000/svg">
<g clip-path="url(#clip0_325_972)">
<path d="M9.48303 7.74965L9.47816 7.79027C8.28703 7.1966 8.16245 7.11752 8.00862 7.34827C7.90191 7.50806 7.59099 7.87044 7.49728 7.97769C7.40249 8.08331 7.30824 8.09144 7.14737 8.01831C6.98487 7.93706 6.46324 7.76644 5.84574 7.21394C5.36474 6.78331 5.04191 6.25519 4.94657 6.09269C4.78787 5.8186 5.11991 5.7796 5.42216 5.2076C5.47632 5.09385 5.4487 5.00448 5.40862 4.92377C5.36799 4.84252 5.04462 4.04627 4.9092 3.72885C4.7792 3.41252 4.64541 3.4526 4.5452 3.4526C4.2332 3.42552 4.00516 3.42985 3.8042 3.63894C2.92995 4.59985 3.15041 5.5911 3.89845 6.64519C5.36853 8.56919 6.15178 8.92344 7.58395 9.41527C7.9707 9.53823 8.32332 9.5209 8.60228 9.48081C8.9132 9.43152 9.55941 9.09027 9.69428 8.7084C9.83241 8.32652 9.83241 8.00965 9.79178 7.93652C9.7517 7.8634 9.64553 7.82277 9.48303 7.74965Z" fill="#4CAF50"/>
<path d="M11.115 1.86802C6.95013 -2.15819 0.0574167 0.761932 0.0547083 6.44185C0.0547083 7.57718 0.352083 8.68435 0.918667 9.66206L0 12.9998L3.43146 12.105C7.71333 14.4179 12.9978 11.3466 13 6.4451C13 4.72477 12.3283 3.10572 11.1069 1.88914L11.115 1.86802ZM11.9178 6.42722C11.9145 10.5618 7.37587 13.1439 3.78625 11.0336L3.59125 10.9176L1.56 11.4458L2.10438 9.47139L1.97492 9.26827C-0.258917 5.71222 2.3075 1.06472 6.539 1.06472C7.24564 1.06295 7.94562 1.20135 8.59841 1.47191C9.2512 1.74247 9.84385 2.13983 10.342 2.64097C10.8429 3.13583 11.2403 3.7255 11.5108 4.37558C11.7813 5.02565 11.9197 5.7231 11.9178 6.42722Z" fill="#4CAF50"/>
</g>
<defs>
<clipPath id="clip0_325_972">
<rect width="13" height="13" fill="white"/>
</clipPath>
</defs>
</svg>
