<svg width="138" height="138" fill="none" xmlns="http://www.w3.org/2000/svg"><path d="M7.563 66.548a62.24 62.24 0 0 1 .412-5.014l.496.06a61.382 61.382 0 0 1 .13-.994l-.495-.069a62.24 62.24 0 0 1 .895-4.95l.488.108c.072-.325.147-.648.224-.97l-.486-.118a61.397 61.397 0 0 1 1.374-4.84l.475.155c.104-.316.21-.63.319-.943l-.473-.164a61.038 61.038 0 0 1 1.844-4.683l.457.202c.134-.304.271-.606.41-.908l-.453-.21a61.037 61.037 0 0 1 2.296-4.476l.435.246c.164-.29.33-.577.499-.863l-.431-.254a61.22 61.22 0 0 1 2.727-4.228l.409.288c.191-.272.385-.542.58-.81l-.403-.296a61.478 61.478 0 0 1 3.13-3.94l.378.328c.217-.252.436-.502.658-.75l-.373-.333a61.705 61.705 0 0 1 3.5-3.615l.344.363c.241-.23.484-.457.729-.683l-.34-.367a61.843 61.843 0 0 1 3.836-3.256l.308.394c.262-.205.526-.407.791-.608l-.301-.4a61.876 61.876 0 0 1 4.134-2.865l.268.422c.281-.179.563-.355.847-.528l-.26-.427a61.677 61.677 0 0 1 4.393-2.45l.226.447c.297-.15.595-.297.894-.443l-.218-.45c1.507-.73 3.046-1.4 4.613-2.007l.18.466c.31-.12.622-.238.934-.353l-.173-.469a61.215 61.215 0 0 1 4.788-1.545l.134.482c.32-.089.641-.175.963-.259l-.126-.484a61.04 61.04 0 0 1 4.918-1.065l.086.493c.327-.057.654-.111.983-.163l-.078-.494a61.065 61.065 0 0 1 5-.574l.036.499c.33-.025.662-.046.994-.065l-.028-.5a61.422 61.422 0 0 1 5.031-.078l-.012.5c.331.008.663.019.996.033l.02-.5c1.663.07 3.335.206 5.015.412l-.061.496a62.286 62.286 0 0 1 .995.13l.069-.494c1.676.233 3.327.532 4.95.894l-.108.488c.325.073.648.147.97.225l.117-.486c1.644.394 3.258.853 4.842 1.373l-.157.475c.316.104.63.21.944.319l.164-.473a61.038 61.038 0 0 1 4.683 1.844l-.203.457c.304.135.607.272.908.41l.21-.453a61.037 61.037 0 0 1 4.477 2.297l-.246.435c.29.164.577.33.863.498l.254-.43a61.236 61.236 0 0 1 4.228 2.726l-.288.41c.272.19.542.384.811.58l.294-.404a61.681 61.681 0 0 1 3.94 3.13l-.327.378c.252.218.502.437.75.658l.333-.373a61.668 61.668 0 0 1 3.614 3.5l-.362.344c.23.241.457.484.682.729l.368-.339a62.13 62.13 0 0 1 3.256 3.835l-.394.308c.205.262.407.526.608.792l.399-.302a61.97 61.97 0 0 1 2.866 4.135l-.422.268c.178.28.354.563.528.847l.426-.261a61.565 61.565 0 0 1 2.45 4.394l-.446.225c.15.297.297.595.442.895l.45-.219a61.15 61.15 0 0 1 2.008 4.614l-.466.18c.12.31.237.621.352.933l.47-.173a61.7 61.7 0 0 1 1.545 4.789l-.482.134c.089.32.175.64.259.962l.484-.126c.42 1.618.776 3.258 1.065 4.918l-.493.086c.057.327.111.655.163.983l.494-.077c.258 1.648.45 3.316.574 5l-.499.036c.024.33.046.662.065.994l.499-.029c.094 1.664.122 3.342.079 5.032l-.5-.013c-.008.332-.019.664-.033.996l.5.02a62.478 62.478 0 0 1-.412 5.015l-.497-.06a42.806 42.806 0 0 1-.13.994l.495.069a62.409 62.409 0 0 1-.894 4.951l-.489-.109c-.072.325-.147.649-.224.971l.486.117a61.385 61.385 0 0 1-1.373 4.841l-.475-.156c-.104.316-.21.63-.319.944l.472.163a61.018 61.018 0 0 1-1.843 4.683l-.458-.202c-.134.304-.271.606-.41.908l.454.21a61.334 61.334 0 0 1-2.297 4.477l-.435-.247c-.164.29-.33.577-.499.864l.431.253a61.07 61.07 0 0 1-2.727 4.229l-.408-.289c-.192.272-.386.543-.582.811l.404.295a61.485 61.485 0 0 1-3.129 3.939l-.378-.326c-.218.251-.437.501-.659.75l.373.332a61.548 61.548 0 0 1-3.499 3.615l-.345-.362c-.241.229-.484.456-.728.682l.339.368a61.9 61.9 0 0 1-3.836 3.255l-.307-.394c-.263.205-.527.408-.792.608l.301.399a61.953 61.953 0 0 1-4.134 2.867l-.268-.423c-.281.179-.563.355-.847.528l.261.427a61.53 61.53 0 0 1-4.394 2.449l-.225-.446c-.297.15-.596.298-.895.443l.218.45c-1.506.73-3.045 1.4-4.613 2.007l-.18-.466c-.31.12-.621.238-.934.353l.174.469a60.88 60.88 0 0 1-4.789 1.545l-.134-.482c-.32.089-.64.175-.963.259l.126.484a60.718 60.718 0 0 1-4.918 1.065l-.085-.492c-.327.056-.655.111-.983.162l.077.494a60.76 60.76 0 0 1-5 .574l-.036-.498c-.33.024-.662.045-.994.064l.028.499a61.023 61.023 0 0 1-5.031.079l.013-.499c-.332-.009-.664-.02-.996-.034l-.021.5a62.475 62.475 0 0 1-5.014-.412l.06-.496-.497-.064a40.668 40.668 0 0 1-.497-.067l-.07.495a61.948 61.948 0 0 1-4.95-.894l.108-.488a52.199 52.199 0 0 1-.97-.225l-.117.486a61.37 61.37 0 0 1-4.841-1.373l.156-.475c-.316-.104-.63-.21-.944-.319l-.164.473a61.041 61.041 0 0 1-4.682-1.844l.202-.457a57.568 57.568 0 0 1-.908-.411l-.21.454a60.532 60.532 0 0 1-4.477-2.297l.246-.435c-.289-.164-.577-.33-.863-.498l-.253.431a61.382 61.382 0 0 1-4.229-2.727l.288-.409a62.663 62.663 0 0 1-.81-.581l-.295.404a61.58 61.58 0 0 1-3.94-3.129l.327-.379a60.19 60.19 0 0 1-.75-.658l-.333.373a61.582 61.582 0 0 1-3.614-3.5l.362-.344a59.55 59.55 0 0 1-.682-.729l-.368.339a61.959 61.959 0 0 1-3.255-3.835l.394-.308a57.628 57.628 0 0 1-.608-.792l-.4.302a61.816 61.816 0 0 1-2.866-4.135l.422-.267a66.927 66.927 0 0 1-.528-.847l-.426.261a61.854 61.854 0 0 1-2.45-4.395l.447-.225a60.84 60.84 0 0 1-.443-.894l-.45.218a61.493 61.493 0 0 1-2.008-4.613l.466-.181c-.12-.31-.237-.62-.352-.933l-.47.173a61.224 61.224 0 0 1-1.544-4.789l.482-.133c-.09-.32-.176-.641-.26-.963l-.483.126a61.031 61.031 0 0 1-1.065-4.918l.492-.086a60.563 60.563 0 0 1-.162-.983l-.494.078a61.065 61.065 0 0 1-.574-5l.498-.037c-.024-.33-.046-.662-.064-.993l-.5.028a61.421 61.421 0 0 1-.079-5.032l.5.013c.008-.332.02-.664.033-.996l-.5-.02Z" stroke="#fff" stroke-dasharray="1 5"/><g clip-path="url(#a)" fill="#fff"><path d="M107.158 96.734c.381-.19.798-.286 1.202-.247.403.038.839.217 1.217.525l.086.054c.377.309.661.654.806 1.03.145.378.196.791.108 1.236-.089.446-.311.878-.624 1.302a3.138 3.138 0 0 1-1.087.939 2.252 2.252 0 0 1-1.246.243 2.322 2.322 0 0 1-1.218-.525l-.085-.054c-.378-.309-.662-.654-.807-1.031a2.197 2.197 0 0 1-.107-1.236c.088-.445.311-.877.623-1.301.403-.415.751-.745 1.132-.935Zm-1.175 2.791c.043.504.273.934.74 1.252l.086.053c.463.363.948.5 1.41.409.507-.088.945-.409 1.311-.918a2.39 2.39 0 0 0 .556-1.535c-.042-.503-.273-.934-.736-1.296l-.085-.054c-.464-.362-.949-.5-1.415-.363-.506.087-.945.408-1.311.918-.415.55-.598 1.031-.556 1.534ZM102.341 108.661c-.394.325-.775.515-1.138.525a1.193 1.193 0 0 1-.998-.459l-.04-.049c-.288-.3-.388-.673-.309-1.028.08-.356.298-.743.692-1.068l1.735-1.558-1.306-1.487.398-.371 3.144 3.571-2.178 1.924Zm-1.987-1.009c-.066.221.002.454.164.651l.085.054a.745.745 0 0 0 .652.29c.229-.024.511-.133.761-.381l1.731-1.512-1.184-1.34-1.731 1.513c-.251.248-.407.46-.478.725ZM93.506 114.799l-.275-.435 2.74-1.642-2.184-3.66.479-.271 2.418 4.045-3.178 1.963ZM83.706 114.037l-.036-.094.56-.173 1.084.966 2.594-1.066.094-1.443.52-.223.036.095-.409 5.18-.564.218-3.879-3.46Zm1.982 1.053 1.958 1.777.21-2.657-2.168.88ZM79.926 119.891l-.388-2.08-3.322.633.388 2.08-.551.083-.864-4.667.551-.083.389 2.079 3.322-.633-.389-2.08.507-.087.913 4.627-.556.128ZM69.796 121.139l.067-3.988-3.413 3.938-.588-.011.05-4.761.544.007-.067 3.988 3.413-3.938.543.007-.05 4.761-.499-.003ZM56.13 116.782a.786.786 0 0 1-.074-.643l.009-.09c.088-.445.388-.734.854-.871.466-.136 1.099-.121 1.898.047.843.172 1.45.457 1.82.856.369.399.5.911.35 1.532l-.009.09-.534-.097.009-.09c.088-.446-.008-.863-.255-1.114-.248-.251-.765-.528-1.478-.642-.62-.15-1.118-.153-1.486-.097a.72.72 0 0 0-.594.532l-.009.09c-.07.266.046.459.213.611.211.156.562.281 1.091.423l1.289.26-.093.49-1.243-.256c-.49-.092-.849-.127-1.126-.063-.233.069-.385.236-.456.501l-.009.09c-.097.535.407.947 1.606 1.199 1.333.264 2.086-.026 2.266-.962l.005-.045.534.097-.004.045c-.15.621-.459.999-.938 1.271-.52.222-1.157.252-1.956.084-.754-.164-1.32-.4-1.653-.704-.378-.309-.478-.681-.394-1.082l.009-.09c.088-.445.387-.734.939-.817a1.472 1.472 0 0 1-.58-.555ZM47.966 111.729l.053-.086.522.232.085 1.461 2.61 1.114 1.088-.94.52.232-.053.086-3.904 3.391-.567-.236-.354-5.254Zm.653 2.151.153 2.647 1.981-1.761-2.134-.886ZM42.971 113.744l-.268.428-4.05-2.614.267-.428 1.79 1.171 2.293-3.592.468.318-2.294 3.591 1.794 1.126ZM37.152 104.56c.14.422.191.836.108 1.236-.084.4-.303.788-.611 1.167l-.054.085a2.516 2.516 0 0 1-1.11.71 2.38 2.38 0 0 1-1.265-.031c-.44-.133-.822-.397-1.24-.755-.374-.354-.654-.744-.794-1.166-.14-.422-.192-.835-.108-1.235.084-.401.303-.788.656-1.163l.053-.085c.35-.33.69-.569 1.11-.71.422-.141.825-.102 1.266.031.44.133.822.397 1.196.75.373.354.653.744.793 1.166Zm-2.62-1.478c-.498-.002-.924.184-1.326.599l-.099.081c-.402.415-.584.897-.542 1.4.042.503.313.983.767 1.436.455.452.976.684 1.474.686.498.003.969-.179 1.37-.594l.1-.081c.402-.415.584-.897.542-1.4-.042-.504-.313-.984-.768-1.436-.544-.461-1.02-.688-1.518-.691ZM25.871 98.48c-.275-.434-.42-.811-.38-1.216a1.22 1.22 0 0 1 .543-.946l.05-.04a1.3 1.3 0 0 1 1.062-.216c.35.124.688.384 1.012.778l1.357 1.901 1.602-1.116.32.439-3.885 2.712-1.68-2.295Zm1.174-1.838c-.22-.066-.449-.043-.69.115l-.05.041c-.242.158-.353.374-.33.604-.021.224.087.507.286.799l1.312 1.896 1.459-1.04-1.313-1.896c-.198-.291-.41-.448-.674-.519ZM21.94 91.793l1.748-.739-.887-2.082c-.225-.476-.276-.89-.148-1.285.125-.352.335-.65.756-.79l.094-.036c.38-.19.74-.156 1.086.013.346.17.63.515.81.986l1.109 2.603-4.346 1.851-.221-.52Zm2.466-4.437c-.215-.111-.44-.133-.722-.024l-.094.036a.796.796 0 0 0-.46.546c-.067.22-.007.544.101.827l.887 2.082 1.702-.744-.887-2.082c-.108-.283-.315-.484-.527-.64Zm-4.536-.391 4.345-1.851.221.52-4.345 1.851-.221-.52ZM21.853 63.554l-.052.54-4.227-.316-.22 2.747 2.379.229c.628.06 1.113.198 1.36.449.293.255.398.583.35 1.077l-.026.27-.494-.047.018-.18c.021-.225-.006-.41-.083-.553-.077-.143-.203-.246-.423-.313a4.032 4.032 0 0 0-.799-.168l-2.827-.272.278-3.831 4.766.368ZM19.287 53.05l.09.008 3.1 3.068c.248.25.406.492.474.726.068.233.042.503-.033.814l-.204.706-.485-.137.204-.707c.067-.22.084-.4.048-.495a.835.835 0 0 0-.275-.434l-4.154 1.279-.09-.009.146-.576 3.684-1.097-2.692-2.62.187-.526ZM22.962 44.508l4.238 2.087-.227.478-1.645-.794c-.075.31-.19.571-.31.877-.12.307-.237.568-.348.784-.624 1.302-1.475 1.674-2.513 1.165l-1.213-.57.232-.523 1.168.566c.39.174.75.209 1.036.055.287-.154.59-.488.822-1.01.112-.216.227-.478.298-.743.12-.306.191-.572.311-.878l-2.161-1.07.313-.424ZM26.295 39.065l3.324 2.635 1.648-2.066L27.943 37l.358-.42 3.324 2.636 1.648-2.065-3.324-2.635.357-.42 3.702 2.944-4.328 5.438-3.702-2.944.317-.468ZM34.948 29.64l2.464 3.097.144-5.25.438-.322 2.951 3.689-.438.32-2.465-3.096-.143 5.25-.439.322-2.95-3.689.438-.32ZM47.011 21.952l-.783 2.965 2.883 1.095.037.094-.574.308-2.533-.97-.66 2.614-.573.308-.036-.094.784-2.965-2.884-1.095-.036-.094.573-.308 2.534.97.66-2.614.572-.308.036.094ZM63.164 17.426l.725 4.7-.552.082-.638-4.191-3.215.461.638 4.192-.551.083-.68-4.695 4.273-.632ZM73.5 17.332l-.01.09-2.306 3.727c-.21.297-.41.505-.603.622-.193.118-.466.137-.83.147l-.767-.028.003-.5.767.03c.224.02.408-.007.507-.088.098-.081.241-.158.353-.375l-2.126-3.79.008-.09.588.011 1.896 3.36 1.936-3.172.583.056ZM77.653 18.413l.092-.49 4.697 1.087-.093.49-2.083-.472-.942 4.13-.53-.142.942-4.13-2.083-.473ZM90.882 22.138l-.182.482-3.132-1.346-.64 1.482 3 1.287-.182.482-3.001-1.288-.641 1.482 3.132 1.345-.183.482-3.612-1.528 1.87-4.359 3.57 1.48ZM96.352 25.07l-2.46 3.44 2.163 1.524 2.46-3.439.467.317-2.46 3.44 2.163 1.524 2.46-3.439.468.317-2.728 3.868-5.635-4.038 2.728-3.867.374.354ZM108.415 35.718l-.348.33-2.292-2.536-1.194 1.11 2.17 2.389-.349.329-2.17-2.388-1.194 1.11 2.292 2.536-.349.33-2.661-2.934 3.524-3.201 2.571 2.925ZM108.491 43.396a2.384 2.384 0 0 1 .211-1.25c.174-.392.518-.677.903-.912l.098-.081c.43-.231.807-.376 1.26-.378.408-.006.803.123 1.185.386.383.264.711.614.982 1.093.23.431.416.858.467 1.27.05.414.011.819-.109 1.125a1.42 1.42 0 0 1-.665.798l-.05.041-.27-.48.049-.04c.237-.114.393-.326.464-.591.071-.266.097-.536.038-.86a3.045 3.045 0 0 0-.358-.987c-.352-.578-.77-.936-1.251-1.119-.481-.182-.942-.09-1.471.222l-.143.077c-.483.316-.792.695-.884 1.185-.093.49.039 1.003.387 1.626.194.337.441.587.693.793.252.206.513.322.782.348.269.026.498.002.74-.156l.049-.04.271.48-.049.04c-.291.2-.659.254-1.018.22-.359-.035-.705-.204-1.047-.419-.337-.26-.621-.604-.9-.994-.181-.471-.318-.938-.364-1.397ZM115.975 48.928l.47-.182 1.649 4.516-.47.182-.712-2.02-3.992 1.476-.177-.516 3.993-1.476-.761-1.98ZM117.445 62.822a1.147 1.147 0 0 1-.623.348l-.094.037c-.367.055-.722-.024-.97-.275-.292-.255-.437-.632-.524-1.14l-.503-2.772 4.658-.867.471 2.632c.087.508.048.913-.076 1.264-.165.302-.411.505-.779.56l-.094.036a1.48 1.48 0 0 1-.628-.06c-.216-.112-.387-.219-.5-.457a2.005 2.005 0 0 1-.338.694Zm1.565-4.025-1.565.258.344 2.075c.055.369.168.607.334.759a.783.783 0 0 0 .616.195l.094-.036c.229-.023.376-.145.488-.362.111-.216.092-.49.033-.813l-.344-2.076Zm-2.266 3.776c.229-.023.426-.186.533-.357.111-.217.137-.486.037-.859l-.375-2.215-1.614.299.375 2.214c.06.324.168.607.335.759a.78.78 0 0 0 .615.195l.094-.036ZM120.556 68.614l-3.975-.111 3.879 3.46-.007.544-4.747-.094.007-.544 3.975.11-3.879-3.46.007-.544 4.747.095-.007.544ZM120.275 79.525c.201-.208.434-.276.748-.246l.045.004-.093.49-.045-.004a.37.37 0 0 0-.38.19 2.273 2.273 0 0 0-.294.699c-.075.31-.101.58-.029.768.073.189.154.287.284.346l.045.004-.093.49-.044-.004c-.31-.075-.477-.228-.585-.51-.109-.283-.07-.688.018-1.133.088-.446.217-.842.423-1.094Zm-.613-.695-3.856-.87 3.132 4.16-.142.53-4.611-1.034.142-.531 3.856.87-3.132-4.159.142-.53 4.611 1.033-.142.531Z"/></g><defs><clipPath id="a"><path fill="#fff" transform="rotate(-1.968 560.73 -427.26)" d="M0 0h105v104H0z"/></clipPath></defs></svg>