<svg width="693" height="350" viewBox="0 0 693 350" fill="none" xmlns="http://www.w3.org/2000/svg">
<g clip-path="url(#clip0_558_9665)">
<path opacity="0.05" d="M1141.93 895.994H596.797V773.716H1037.65L1141.93 557.379V895.994ZM23.248 787.841L241.303 891.306H-100V350.463H23.248V787.841ZM298.193 237.584C359.817 237.584 421.442 251.693 454.624 270.505L421.442 369.268C388.26 350.456 336.116 336.347 283.973 336.347C227.089 336.347 198.647 359.862 198.646 397.485C198.646 430.406 222.348 449.218 288.713 472.733C378.779 505.654 440.403 552.684 440.403 632.635C440.403 726.694 364.558 797.239 231.829 797.239C170.205 797.239 122.801 783.13 94.3594 769.021L122.802 670.259C146.503 679.665 184.426 693.773 236.569 693.773C288.713 693.773 317.155 670.259 317.155 642.041C317.155 609.12 283.973 590.308 217.608 566.793C122.802 529.169 75.3984 482.139 75.3984 406.892C75.3984 317.535 146.503 237.584 298.193 237.584ZM615.767 378.661C596.805 411.582 582.584 463.315 582.584 515.048C582.584 571.483 606.286 599.701 639.468 599.701C672.65 599.701 691.611 576.186 715.312 510.345C748.495 420.988 795.899 359.85 876.484 359.85C971.291 359.85 1042.4 435.097 1042.4 566.78C1042.4 627.919 1028.17 674.949 1013.95 703.167L914.406 674.949C923.887 651.434 938.108 613.81 938.108 562.077C938.108 510.345 914.407 482.127 885.965 482.127C852.783 482.127 833.821 510.345 810.119 580.89C772.197 674.949 724.793 721.979 648.948 721.979C558.882 721.978 478.297 651.434 478.297 500.938C478.297 439.8 492.518 378.661 511.479 345.74L615.767 378.661ZM810.162 -256.242C871.786 -256.242 919.19 -242.133 947.632 -228.024L919.189 -129.262C895.488 -138.668 857.565 -152.776 805.422 -152.776C753.279 -152.776 724.837 -129.262 724.837 -101.044C724.837 -68.1231 758.019 -49.3107 824.383 -25.7959C919.189 11.828 966.593 58.8577 966.593 134.105C966.593 223.462 895.488 303.413 743.798 303.413C682.174 303.413 620.549 289.304 587.367 270.492L620.55 167.026C653.732 185.838 705.875 199.947 758.019 199.947C814.902 199.947 843.345 176.432 843.345 143.512C848.085 110.591 819.643 91.7786 753.278 68.2637C663.212 35.3428 601.588 -11.687 601.588 -91.6377C601.588 -185.697 677.433 -256.242 810.162 -256.242ZM388.247 -180.986C478.313 -180.986 558.899 -110.442 558.899 40.0537C558.899 101.192 544.678 162.331 525.717 195.252L426.17 162.331C445.131 129.41 459.352 77.6779 459.353 25.9453C459.353 -30.4903 435.651 -58.7088 402.469 -58.709C369.287 -58.709 350.325 -35.1941 326.623 30.6475C293.441 120.004 246.038 181.144 165.452 181.144C70.6458 181.143 -0.458984 105.895 -0.458984 -25.7881C-0.458956 -86.9268 13.7624 -133.957 27.9834 -162.175L127.529 -133.956C118.049 -115.144 99.0879 -77.5202 99.0879 -21.085C99.0879 30.6479 122.79 58.8662 151.231 58.8662C184.414 58.8661 203.375 25.9449 227.076 -39.8965C264.999 -133.956 312.402 -180.986 388.247 -180.986ZM1141.99 185.843H1018.74V-251.534L800.684 -355H1141.99V185.843ZM445.137 -232.723H4.28711L-100 -16.3848V-355H445.137V-232.723Z" fill="#323D48"/>
</g>
<defs>
<clipPath id="clip0_558_9665">
<rect width="693" height="350" rx="10" fill="white"/>
</clipPath>
</defs>
</svg>
